<?xml version="1.0" encoding="UTF-8"?>
<svg version="1.1" xmlns="http://www.w3.org/2000/svg" width="500" height="500">
<path d="M0 0 C0.495 0.33 0.99 0.66 1.5 1 C1.5 1.66 1.5 2.32 1.5 3 C3.15 3.66 4.8 4.32 6.5 5 C6.5 5.66 6.5 6.32 6.5 7 C7.03625 7.2475 7.5725 7.495 8.125 7.75 C11.07379999 9.30199999 13.75203321 11.11414044 16.5 13 C17.14066406 13.42925781 17.78132812 13.85851562 18.44140625 14.30078125 C20.16492324 15.48112925 21.83685315 16.73600839 23.5 18 C23.5 18.66 23.5 19.32 23.5 20 C24.57121094 20.35771484 24.57121094 20.35771484 25.6640625 20.72265625 C28.95489261 22.20488965 31.1599012 24.06083788 33.875 26.4375 C40.779153 32.3784373 48.10754698 37.68793677 55.5 43 C55.73361474 38.9089035 55.73361474 38.9089035 54.5 35.125 C52.97208388 31.87817823 52.89585135 28.48847123 53.5 25 C54.48486328 22.39941406 54.48486328 22.39941406 56.5 20 C59.55841876 19.54659035 62.05463857 19.4152015 65.10546875 19.51171875 C65.94467361 19.51879349 66.78387848 19.52586823 67.64851379 19.53315735 C70.32908259 19.56114833 73.00756267 19.62389199 75.6875 19.6875 C77.50452712 19.71257695 79.32158699 19.73539118 81.13867188 19.75585938 C85.59325278 19.81099001 90.04627229 19.89729217 94.5 20 C94.5 20.66 94.5 21.32 94.5 22 C95.16 22 95.82 22 96.5 22 C96.5 26.29 96.5 30.58 96.5 35 C95.18 35.66 93.86 36.32 92.5 37 C92.5687386 41.94842001 92.65663469 46.89598371 92.76245117 51.84375 C92.79574435 53.52757285 92.82376256 55.21150848 92.84643555 56.89550781 C92.87990205 59.31364086 92.93221036 61.73073624 92.98828125 64.1484375 C92.99786613 65.28132706 92.99786613 65.28132706 93.00764465 66.43710327 C93.03980318 68.78645901 93.03980318 68.78645901 93.5 72 C94.49 72.66 95.48 73.32 96.5 74 C96.5 74.66 96.5 75.32 96.5 76 C97.5209375 76.3403125 97.5209375 76.3403125 98.5625 76.6875 C102.1988709 78.31226146 105.52829263 80.32803257 108.5 83 C108.5 83.66 108.5 84.32 108.5 85 C110.15 85.66 111.8 86.32 113.5 87 C113.5 87.66 113.5 88.32 113.5 89 C115.15 89.66 116.8 90.32 118.5 91 C118.5 91.66 118.5 92.32 118.5 93 C119.19480469 93.2371875 119.88960938 93.474375 120.60546875 93.71875 C124.02198185 95.2310527 126.85756671 97.25238367 129.8125 99.5 C130.36228516 99.90347656 130.91207031 100.30695313 131.47851562 100.72265625 C132.86007451 101.76268691 134.18556298 102.87633454 135.5 104 C135.5 104.66 135.5 105.32 135.5 106 C136.16 106.19722656 136.82 106.39445312 137.5 106.59765625 C141.71816188 108.56942723 144.95760661 111.44738012 148.5 114.4375 C153.77944199 118.91494498 153.77944199 118.91494498 159.5 122.78515625 C160.16 123.18605469 160.82 123.58695312 161.5 124 C161.5 124.66 161.5 125.32 161.5 126 C162.221875 126.2475 162.94375 126.495 163.6875 126.75 C166.77606582 128.12269592 169.01011418 129.72353296 171.5 132 C171.5 132.66 171.5 133.32 171.5 134 C172.16 134 172.82 134 173.5 134 C175.1020886 137.20417721 174.99285215 140.52339432 174.5 144 C172.3755173 147.44312714 171.35147359 148.71617547 167.5 150 C165.81279852 150.13635371 164.12143095 150.22428282 162.4296875 150.28125 C160.96208984 150.33732422 160.96208984 150.33732422 159.46484375 150.39453125 C157.39714449 150.46511011 155.32943606 150.53542061 153.26171875 150.60546875 C151.79798828 150.66154297 151.79798828 150.66154297 150.3046875 150.71875 C149.40733887 150.74904297 148.50999023 150.77933594 147.58544922 150.81054688 C145.512049 150.77453999 145.512049 150.77453999 144.5 152 C144.40067041 153.54548998 144.37091587 155.09550321 144.36869812 156.6441803 C144.36468994 157.6489592 144.36068176 158.6537381 144.35655212 159.68896484 C144.35708084 160.80102295 144.35760956 161.91308105 144.3581543 163.05883789 C144.35467987 164.22321884 144.35120544 165.38759979 144.34762573 166.58726501 C144.34024954 169.12836792 144.33491415 171.66947736 144.33133507 174.21058846 C144.32542094 178.24349875 144.30887026 182.2763209 144.28999329 186.30918884 C144.28365469 187.69162458 144.27732908 189.07406038 144.27101612 190.45649624 C144.26785031 191.1492112 144.2646845 191.84192615 144.26142275 192.55563247 C144.21944641 201.94503083 144.18645896 211.33439122 144.17407227 220.72387695 C144.16563595 227.05377037 144.14293071 233.38344829 144.1047166 239.71323389 C144.08511837 243.05731627 144.07473681 246.40079982 144.07755089 249.74498177 C144.09523741 277.65075206 138.84420349 299.99048528 121.453125 322.46875 C120.06870944 324.26295257 118.75707466 326.114388 117.5 328 C116.84 328 116.18 328 115.5 328 C115.190625 328.804375 115.190625 328.804375 114.875 329.625 C112.96749574 332.91978009 110.45180616 335.59363628 107.5 338 C106.84 338 106.18 338 105.5 338 C105.5 338.66 105.5 339.32 105.5 340 C104.84 340 104.18 340 103.5 340 C103.5 340.66 103.5 341.32 103.5 342 C101.22873755 343.93194868 98.95500293 345.72801106 96.5625 347.5 C95.84320313 348.03391357 95.12390625 348.56782715 94.3828125 349.11791992 C50.0959708 381.4168048 -5.40711203 387.58754702 -58.6796875 379.6484375 C-84.04131066 375.34370392 -111.99594333 367.88237106 -131.5 350 C-131.5 349.34 -131.5 348.68 -131.5 348 C-132.304375 347.690625 -132.304375 347.690625 -133.125 347.375 C-136.41978009 345.46749574 -139.09363628 342.95180616 -141.5 340 C-141.5 339.34 -141.5 338.68 -141.5 338 C-142.16 338 -142.82 338 -143.5 338 C-155.07259978 322.01879078 -160.94329561 303.40227903 -157.99609375 283.6171875 C-156.05268866 274.3998948 -152.85179019 265.36265672 -148.5 257 C-147.84 257 -147.18 257 -146.5 257 C-146.273125 256.29875 -146.04625 255.5975 -145.8125 254.875 C-144.16158712 251.25871465 -142.2091165 248.91230024 -139.5 246 C-138.84 246 -138.18 246 -137.5 246 C-137.5 245.34 -137.5 244.68 -137.5 244 C-123.63810302 231.82483827 -106.84316745 229.25161452 -89.03857422 230.2734375 C-71.73028295 231.5889071 -54.77203306 237.40990661 -41.5 249 C-41.5 249.66 -41.5 250.32 -41.5 251 C-40.84 251 -40.18 251 -39.5 251 C-39.5 251.66 -39.5 252.32 -39.5 253 C-38.84 253 -38.18 253 -37.5 253 C-37.5 253.66 -37.5 254.32 -37.5 255 C-36.84 255 -36.18 255 -35.5 255 C-33.98259024 256.69903023 -32.534872 258.46072723 -31.125 260.25 C-28.90770687 263.05313312 -26.7694248 265.73701197 -24.2109375 268.234375 C-22.5 270 -22.5 270 -22.5 272 C-19.21303767 272.79953138 -17.78976808 273.09658936 -14.5 272 C-14.5 271.34 -14.5 270.68 -14.5 270 C-13.84 270 -13.18 270 -12.5 270 C-12.5 269.34 -12.5 268.68 -12.5 268 C-11.84 268 -11.18 268 -10.5 268 C-9.84 266.68 -9.18 265.36 -8.5 264 C-7.84 264 -7.18 264 -6.5 264 C-6.21125 263.401875 -5.9225 262.80375 -5.625 262.1875 C-4.5 260 -4.5 260 -2.5 257 C-1.84 257 -1.18 257 -0.5 257 C-0.26410156 256.43539063 -0.02820313 255.87078125 0.21484375 255.2890625 C1.79234942 252.47928037 3.74051286 250.60380949 6.0625 248.375 C9.19042054 245.48929319 9.19042054 245.48929319 11.5 242 C12.16 242 12.82 242 13.5 242 C13.5 241.34 13.5 240.68 13.5 240 C14.16 240 14.82 240 15.5 240 C15.5 239.34 15.5 238.68 15.5 238 C16.16 238 16.82 238 17.5 238 C17.5 237.34 17.5 236.68 17.5 236 C18.49 235.34 19.48 234.68 20.5 234 C21.22547371 231.21037184 21.76704957 228.55860909 22.21875 225.72265625 C22.36276245 224.88270615 22.5067749 224.04275604 22.65515137 223.17735291 C23.11550352 220.4742815 23.55786239 217.76860397 24 215.0625 C24.29702264 213.30514303 24.59518829 211.54797885 24.89453125 209.79101562 C26.67945662 199.24040679 26.67945662 199.24040679 28.24609375 188.65576172 C28.36819214 187.79848984 28.49029053 186.94121796 28.61608887 186.05796814 C28.84377246 184.44433259 29.05926859 182.82890856 29.2598877 181.21168518 C30.10380228 175.31499078 32.05773017 171.12486292 36.6640625 167.1171875 C40.81472803 165.48207684 44.47427631 165.81499808 48.875 166.125 C49.79112061 166.17922119 50.70724121 166.23344238 51.65112305 166.28930664 C61.44090658 166.93820197 71.13630084 168.25681978 80.84521484 169.63574219 C83.33831063 169.97781492 85.83198263 170.28402752 88.33203125 170.5703125 C89.06381592 170.65482666 89.79560059 170.73934082 90.54956055 170.82641602 C92.472766 171.04518318 94.39651842 171.25912731 96.3203125 171.47265625 C101.59287498 172.34709843 105.19873417 173.77958572 108.56819153 178.11607361 C111.53735021 184.11910596 109.25963898 192.86613044 108.14453125 199.21484375 C107.93170753 200.48279785 107.93170753 200.48279785 107.71458435 201.77636719 C107.25535465 204.49819905 106.78424092 207.21781128 106.3125 209.9375 C105.99070109 211.82811967 105.66941592 213.71882685 105.34863281 215.60961914 C103.38219486 227.14502728 101.31641046 238.65987421 99.140625 250.15771484 C97.92281076 256.61151731 96.8133302 263.07156658 95.8125 269.5625 C95.57814899 271.06771207 95.34377554 272.57292064 95.109375 274.078125 C94.7420359 276.44228179 94.3767989 278.8067685 94.015625 281.171875 C92.95579793 287.34810863 91.21742164 291.67078145 86.3125 295.875 C79.56644839 298.57342064 71.61774997 296.74588671 64.625 295.6875 C54.61122894 294.23397225 44.58106736 293.09210568 34.51220703 292.09057617 C29.26725159 291.54197483 24.42615585 291.02076464 19.5 289 C19.190625 289.61875 18.88125 290.2375 18.5625 290.875 C17.875 292.25 17.1875 293.625 16.5 295 C15.84 295 15.18 295 14.5 295 C14.314375 295.66 14.12875 296.32 13.9375 297 C11.89191226 301.26905268 8.92815357 304.74163706 5.5 308 C4.84 308 4.18 308 3.5 308 C3.5 308.66 3.5 309.32 3.5 310 C2.84 310 2.18 310 1.5 310 C1.5 310.66 1.5 311.32 1.5 312 C0.84 312 0.18 312 -0.5 312 C-0.5 312.66 -0.5 313.32 -0.5 314 C-6.34937227 318.90145028 -12.02535625 322.37354987 -19.625 323.4375 C-32.89304965 321.93949439 -45.04491262 312.78053014 -55.5 305 C-55.68966094 316.35858317 -55.10465428 327.66112404 -54.5 339 C-37.6878669 346.17230795 -21.24670718 349.42607035 -3 349.375 C-2.29956573 349.37478851 -1.59913147 349.37457703 -0.87747192 349.37435913 C10.95119807 349.3388467 22.09469124 348.25369451 33.5 345 C34.16161133 344.81808105 34.82322266 344.63616211 35.50488281 344.44873047 C58.41187253 337.99857408 81.29857056 325.22661592 96.23046875 306.36328125 C96.85888672 305.68845703 96.85888672 305.68845703 97.5 305 C98.16 305 98.82 305 99.5 305 C99.75265625 304.44957031 100.0053125 303.89914062 100.265625 303.33203125 C101.71175527 300.59994337 103.45414873 298.20377997 105.25 295.6875 C112.02848256 285.62472534 116.60283236 274.52778227 116.64044189 262.25187683 C116.64615204 261.12913864 116.65186218 260.00640045 116.65774536 258.84963989 C116.65886322 257.63235199 116.65998108 256.41506409 116.66113281 255.16088867 C116.66609772 253.86749069 116.67106262 252.57409271 116.67617798 251.24150085 C116.68924783 247.70417507 116.69573612 244.16686822 116.70018864 240.62952209 C116.70312769 238.41594361 116.707234 236.20237022 116.71169281 233.98879433 C116.7253525 227.05243429 116.73502703 220.11608598 116.7388947 213.17971343 C116.74337405 205.19202755 116.76092255 197.2045129 116.7898953 189.21687907 C116.81155571 183.02897934 116.82160128 176.84112765 116.82293582 170.65319043 C116.82398058 166.96353734 116.82981817 163.27404555 116.84775543 159.5844326 C116.8673932 155.46528198 116.86292984 151.3464873 116.85644531 147.22729492 C116.8656601 146.01607971 116.87487488 144.8048645 116.8843689 143.5569458 C116.83814557 134.16813484 115.77612584 126.63932725 109.125 119.625 C108.37476563 118.81289062 107.62453125 118.00078125 106.8515625 117.1640625 C104.55910109 114.90636055 104.55910109 114.90636055 101.7109375 113.3359375 C100.61652344 112.67464844 100.61652344 112.67464844 99.5 112 C99.5 111.34 99.5 110.68 99.5 110 C98.67822266 109.62875 98.67822266 109.62875 97.83984375 109.25 C95.0200619 107.74360569 92.60863087 105.93464489 90.0625 104 C89.54316895 103.60699707 89.02383789 103.21399414 88.48876953 102.80908203 C85.70565148 100.69823883 82.93778203 98.56806314 80.17578125 96.4296875 C79.3561792 95.79546875 79.3561792 95.79546875 78.52001953 95.1484375 C77.42785674 94.30297577 76.33637891 93.45662845 75.24560547 92.609375 C71.02382054 89.34982391 66.67820393 86.31658638 62.23046875 83.375 C61.65941406 82.92125 61.08835937 82.4675 60.5 82 C60.5 81.34 60.5 80.68 60.5 80 C59.695625 79.62875 59.695625 79.62875 58.875 79.25 C55.92620001 77.69800001 53.24796679 75.88585956 50.5 74 C49.85933594 73.57074219 49.21867188 73.14148438 48.55859375 72.69921875 C46.83507676 71.51887075 45.16314685 70.26399161 43.5 69 C43.5 68.34 43.5 67.68 43.5 67 C42.84 66.80277344 42.18 66.60554688 41.5 66.40234375 C37.28183812 64.43057277 34.04239339 61.55261988 30.5 58.5625 C25.22055801 54.08505502 25.22055801 54.08505502 19.5 50.21484375 C18.84 49.81394531 18.18 49.41304687 17.5 49 C17.5 48.34 17.5 47.68 17.5 47 C16.44619141 46.65582031 16.44619141 46.65582031 15.37109375 46.3046875 C11.94553454 44.74803883 9.3612014 42.58327037 6.5625 40.125 C2.7205216 36.78371814 -1.11724124 33.621001 -5.5 31 C-9.91817395 31.69760641 -13.30642578 35.02119689 -16.73046875 37.7578125 C-18.5 39 -18.5 39 -20.5 39 C-20.5 39.66 -20.5 40.32 -20.5 41 C-22.1796875 42.5078125 -22.1796875 42.5078125 -24.375 44.125 C-25.09429687 44.66382813 -25.81359375 45.20265625 -26.5546875 45.7578125 C-28.5 47 -28.5 47 -30.5 47 C-30.5 47.66 -30.5 48.32 -30.5 49 C-31.913823 49.99093844 -33.33505788 50.97309768 -34.79296875 51.89794922 C-37.47994142 53.63264525 -39.97218976 55.60538162 -42.5 57.5625 C-43.05324951 57.99014648 -43.60649902 58.41779297 -44.17651367 58.85839844 C-48.40577101 62.13365675 -52.60982074 65.44075904 -56.8125 68.75 C-71.11926666 80 -71.11926666 80 -73.5 80 C-73.5 80.66 -73.5 81.32 -73.5 82 C-75.23548169 83.44526736 -77.03975963 84.8087222 -78.875 86.125 C-79.87273437 86.84945312 -80.87046875 87.57390625 -81.8984375 88.3203125 C-84.5 90 -84.5 90 -86.5 90 C-86.5 90.66 -86.5 91.32 -86.5 92 C-87.82 92.33 -89.14 92.66 -90.5 93 C-90.5 93.66 -90.5 94.32 -90.5 95 C-92.15 95.66 -93.8 96.32 -95.5 97 C-95.5 97.66 -95.5 98.32 -95.5 99 C-97.4140625 100.55859375 -97.4140625 100.55859375 -100.125 102.4375 C-119.14208389 115.10959596 -119.14208389 115.10959596 -129.92218018 134.425354 C-131.06954278 141.52344055 -130.78245426 148.69243159 -130.66436386 155.86303329 C-130.6163617 158.8561799 -130.58957572 161.84886589 -130.56838989 164.84231567 C-130.50452653 173.3444771 -130.40312383 181.84605268 -130.28759766 190.34765625 C-130.21812705 195.56685211 -130.17298427 200.78581372 -130.14242935 206.00537491 C-130.1256689 207.98860186 -130.09928514 209.97177197 -130.0630455 211.95473862 C-130.01265335 214.72127641 -129.99297473 217.48648812 -129.97998047 220.25341797 C-129.95729095 221.0690773 -129.93460144 221.88473663 -129.91122437 222.72511292 C-129.92560107 227.01156829 -130.0894808 228.50383488 -132.92703247 231.93338013 C-133.77611176 232.61536469 -134.62519104 233.29734924 -135.5 234 C-136.056875 234.598125 -136.61375 235.19625 -137.1875 235.8125 C-138.5 237 -138.5 237 -140.5 237 C-140.5 237.66 -140.5 238.32 -140.5 239 C-141.16 239 -141.82 239 -142.5 239 C-142.5 239.66 -142.5 240.32 -142.5 241 C-143.16 241 -143.82 241 -144.5 241 C-144.726875 241.515625 -144.95375 242.03125 -145.1875 242.5625 C-146.98217618 245.89547005 -148.99965015 249.14703671 -151.5 252 C-152.16 252 -152.82 252 -153.5 252 C-154.16 253.32 -154.82 254.64 -155.5 256 C-155.83 256 -156.16 256 -156.5 256 C-156.83 221.35 -157.16 186.7 -157.5 151 C-164.76 150.67 -172.02 150.34 -179.5 150 C-185.69047619 147.52380952 -185.69047619 147.52380952 -187.5 144 C-187.9065857 140.27296441 -187.82666609 137.780369 -186.375 134.3125 C-184.07548233 131.47642821 -181.65535197 129.812649 -178.5 128 C-177.84 128 -177.18 128 -176.5 128 C-176.5 127.34 -176.5 126.68 -176.5 126 C-175.18994141 124.79833984 -175.18994141 124.79833984 -173.3515625 123.4609375 C-172.68012207 122.96625977 -172.00868164 122.47158203 -171.31689453 121.96191406 C-170.59356934 121.43823242 -169.87024414 120.91455078 -169.125 120.375 C-167.65520349 119.29569452 -166.18645314 118.21496294 -164.71875 117.1328125 C-163.99816406 116.60204102 -163.27757812 116.07126953 -162.53515625 115.52441406 C-159.0373577 112.90442196 -155.67646967 110.12681878 -152.3203125 107.328125 C-150.5 106 -150.5 106 -148.5 106 C-148.5 105.34 -148.5 104.68 -148.5 104 C-146.26246465 102.22356837 -144.02777227 100.56762068 -141.6875 98.9375 C-141.04490234 98.47794922 -140.40230469 98.01839844 -139.74023438 97.54492188 C-136.9570241 95.58081183 -134.76197136 94.08732379 -131.5 93 C-131.5 92.34 -131.5 91.68 -131.5 91 C-129.76451831 89.55473264 -127.96024037 88.1912778 -126.125 86.875 C-124.62839844 85.78832031 -124.62839844 85.78832031 -123.1015625 84.6796875 C-120.5 83 -120.5 83 -118.5 83 C-118.5 82.34 -118.5 81.68 -118.5 81 C-116.92634453 79.72551857 -115.28762868 78.53101052 -113.625 77.375 C-108.83488106 73.99228714 -104.27945721 70.43359117 -99.7890625 66.6640625 C-97.43547872 64.95309545 -95.2370027 63.95746738 -92.5 63 C-92.5 62.34 -92.5 61.68 -92.5 61 C-91.15478516 59.76318359 -91.15478516 59.76318359 -89.2890625 58.3984375 C-88.62132812 57.90859375 -87.95359375 57.41875 -87.265625 56.9140625 C-86.55921875 56.40617187 -85.8528125 55.89828125 -85.125 55.375 C-84.07699219 54.6015625 -84.07699219 54.6015625 -83.0078125 53.8125 C-77.76310351 50 -77.76310351 50 -75.5 50 C-75.5 49.34 -75.5 48.68 -75.5 48 C-73.85 47.34 -72.2 46.68 -70.5 46 C-70.5 45.34 -70.5 44.68 -70.5 44 C-68.5859375 42.44140625 -68.5859375 42.44140625 -65.875 40.5625 C-61.35975265 37.36130541 -56.9628629 34.06233535 -52.625 30.625 C-51.42848613 29.67956003 -50.23187119 28.73424795 -49.03515625 27.7890625 C-48.44492676 27.32274414 -47.85469727 26.85642578 -47.24658203 26.37597656 C-39.7144443 20.4420755 -32.08112597 14.64339947 -24.375 8.9375 C-23.73506104 8.45990234 -23.09512207 7.98230469 -22.43579102 7.49023438 C-19.80556379 5.55525717 -17.61874318 4.03958106 -14.5 3 C-14.5 2.34 -14.5 1.68 -14.5 1 C-10.13338636 -1.91107576 -4.77017978 -1.90807191 0 0 Z M40.5 183 C38.73081051 188.21595862 37.90974079 193.40433164 37.171875 198.84765625 C36.04041874 206.77031055 34.69241347 214.63306772 33.203125 222.49609375 C33.00352173 223.55494781 32.80391846 224.61380188 32.5982666 225.70474243 C31.77374499 230.06656409 30.94454829 234.42742473 30.10498047 238.78637695 C29.48360855 242.02144488 28.87379313 245.25852157 28.265625 248.49609375 C28.07301086 249.47936142 27.88039673 250.46262909 27.6819458 251.47569275 C27.51136658 252.39177811 27.34078735 253.30786346 27.16503906 254.25170898 C27.01198303 255.05076157 26.858927 255.84981415 26.70123291 256.67308044 C26.47363772 259.30483531 26.87207313 261.44542463 27.5 264 C34.74037428 266.0273048 42.04806749 267.07244616 49.5 268 C50.24282227 268.09313477 50.98564453 268.18626953 51.75097656 268.28222656 C62.38681536 269.58574648 72.78151648 270.28838969 83.5 270 C85.63939504 264.06209394 87.1812977 258.26027251 88.21875 252.0390625 C88.36276245 251.20901703 88.5067749 250.37897156 88.65515137 249.52377319 C89.1099697 246.89192356 89.55501295 244.25852753 90 241.625 C90.29756639 239.89963415 90.59573965 238.17437285 90.89453125 236.44921875 C92.52783271 226.96993308 94.08492613 217.48104897 95.52355957 207.97012329 C96.00016465 204.87256904 96.50677925 201.97966226 97.5 199 C97.61829437 197.1485555 97.67514861 195.29267862 97.6875 193.4375 C97.70167969 192.46683594 97.71585937 191.49617187 97.73046875 190.49609375 C97.75207746 187.82601084 97.75207746 187.82601084 95.5 186 C92.65801077 185.47200068 89.87703385 185.05541769 87.01171875 184.7109375 C86.1575386 184.60278717 85.30335846 184.49463684 84.42329407 184.38320923 C82.60718278 184.15555109 80.79052271 183.93223584 78.97338867 183.71289062 C76.23512174 183.38077587 73.49948784 183.0313539 70.76367188 182.6796875 C54.71811132 179.49675197 54.71811132 179.49675197 40.5 183 Z M45.5 278 C45.17 279.32 44.84 280.64 44.5 282 C46.37824891 283.87824891 49.53935276 283.39102397 52.0625 283.5625 C53.26003906 283.64628906 54.45757812 283.73007812 55.69140625 283.81640625 C56.61824219 283.87699219 57.54507813 283.93757813 58.5 284 C58.5 282.68 58.5 281.36 58.5 280 C54.21 279.34 49.92 278.68 45.5 278 Z " fill="#0460AC" transform="translate(256.5,60)"/>
<path d="M0 0 C7.7003364 7.11140054 12.34129915 16.05300386 13.3359375 26.54296875 C13.4735291 39.38026519 11.13971426 49.61780352 2 59 C-6.60633189 66.85108236 -16.24820064 70.37263076 -27.90625 70.1484375 C-37.03418474 69.5013078 -46.01805475 65.99137178 -53 60 C-53 59.34 -53 58.68 -53 58 C-53.66 58 -54.32 58 -55 58 C-55 57.34 -55 56.68 -55 56 C-55.66 56 -56.32 56 -57 56 C-62.79567033 46.17913827 -65.23109825 38.59569466 -65 27 C-65.00902344 26.24074219 -65.01804688 25.48148438 -65.02734375 24.69921875 C-64.59443306 15.60809421 -58.72625582 6.72538701 -52.203125 0.75 C-36.05544865 -12.07652306 -16.70945225 -12.44081907 0 0 Z " fill="#0360AC" transform="translate(213,217)"/>
<path d="M0 0 C1.37418091 0.08133179 1.37418091 0.08133179 2.77612305 0.16430664 C12.56590658 0.81320197 22.26130084 2.13181978 31.97021484 3.51074219 C34.46331063 3.85281492 36.95698263 4.15902752 39.45703125 4.4453125 C40.18881592 4.52982666 40.92060059 4.61434082 41.67456055 4.70141602 C43.597766 4.92018318 45.52151842 5.13412731 47.4453125 5.34765625 C52.71787498 6.22209843 56.32373417 7.65458572 59.69319153 11.99107361 C62.66235021 17.99410596 60.38463898 26.74113044 59.26953125 33.08984375 C59.12764877 33.93514648 58.9857663 34.78044922 58.83958435 35.65136719 C58.38035465 38.37319905 57.90924092 41.09281128 57.4375 43.8125 C57.11570109 45.70311967 56.79441592 47.59382685 56.47363281 49.48461914 C54.50806913 61.01489869 52.45052792 72.52646031 50.265625 84.01733398 C48.86749969 91.39795775 47.6381525 98.79211327 46.61230469 106.23413086 C46.09738656 109.77278062 45.64348228 111.84727659 43.625 114.875 C42.63479136 111.67357356 42.6049856 109.07514399 42.9375 105.75 C43.01613281 104.88117188 43.09476562 104.01234375 43.17578125 103.1171875 C43.625 100.875 43.625 100.875 45.625 98.875 C46.08572107 96.84786326 46.08572107 96.84786326 46.2578125 94.5234375 C46.38349609 93.24726563 46.38349609 93.24726563 46.51171875 91.9453125 C46.59035156 91.05585938 46.66898437 90.16640625 46.75 89.25 C46.87955078 87.90421875 46.87955078 87.90421875 47.01171875 86.53125 C47.2240924 84.3131252 47.42817085 82.09454931 47.625 79.875 C45.315 79.545 43.005 79.215 40.625 78.875 C40.13 80.36 40.13 80.36 39.625 81.875 C40.37519425 74.61036384 41.39074426 67.40552567 42.5 60.1875 C42.67563477 59.03499756 42.85126953 57.88249512 43.03222656 56.69506836 C43.9614592 50.71871962 45.0008056 44.82690458 46.375 38.9375 C47.70420119 33.18241809 47.94937833 27.76186591 47.625 21.875 C42.72936687 20.36286893 38.06768045 19.41946394 32.9609375 18.8046875 C32.24700836 18.71873322 31.53307922 18.63277893 30.79751587 18.54421997 C29.29357681 18.36495265 27.78928355 18.18863437 26.28466797 18.01513672 C24.02572445 17.75298533 21.76881956 17.47673519 19.51171875 17.19921875 C10.84534481 16.16524791 2.36916146 15.61686272 -6.375 15.875 C-8.70012552 21.54337235 -10.00068435 26.70612735 -10.76953125 32.765625 C-11.87426287 40.73066625 -13.17897698 48.63879125 -14.63671875 56.546875 C-14.83403595 57.61764282 -15.03135315 58.68841064 -15.23464966 59.79162598 C-15.8414271 63.06988789 -16.45186303 66.34745505 -17.0625 69.625 C-17.48273089 71.89447405 -17.90265448 74.16400503 -18.32226562 76.43359375 C-19.33631561 81.91472129 -20.35410466 87.39514355 -21.375 92.875 C-21.705 92.875 -22.035 92.875 -22.375 92.875 C-22.4020203 90.12493392 -22.42184883 87.37513454 -22.4375 84.625 C-22.44587891 83.84769531 -22.45425781 83.07039063 -22.46289062 82.26953125 C-22.46611328 81.51542969 -22.46933594 80.76132812 -22.47265625 79.984375 C-22.47789307 79.29311523 -22.48312988 78.60185547 -22.48852539 77.88964844 C-22.36937971 75.77526102 -21.95118237 73.90858485 -21.375 71.875 C-22.86 72.865 -22.86 72.865 -24.375 73.875 C-25.6125 74.0915625 -25.6125 74.0915625 -26.875 74.3125 C-29.69164671 74.94624551 -30.47788978 75.79721262 -32.375 77.875 C-33.035 77.875 -33.695 77.875 -34.375 77.875 C-34.045 75.895 -33.715 73.915 -33.375 71.875 C-32.715 71.875 -32.055 71.875 -31.375 71.875 C-31.375 71.215 -31.375 70.555 -31.375 69.875 C-29.89 68.885 -29.89 68.885 -28.375 67.875 C-27.64952629 65.08537184 -27.10795043 62.43360909 -26.65625 59.59765625 C-26.51223755 58.75770615 -26.3682251 57.91775604 -26.21984863 57.05235291 C-25.75949648 54.3492815 -25.31713761 51.64360397 -24.875 48.9375 C-24.57797736 47.18014303 -24.27981171 45.42297885 -23.98046875 43.66601562 C-22.19554338 33.11540679 -22.19554338 33.11540679 -20.62890625 22.53076172 C-20.50680786 21.67348984 -20.38470947 20.81621796 -20.25891113 19.93296814 C-20.03122754 18.31933259 -19.81573141 16.70390856 -19.6151123 15.08668518 C-18.77119772 9.18999078 -16.81726983 4.99986292 -12.2109375 0.9921875 C-8.06027197 -0.64292316 -4.40072369 -0.31000192 0 0 Z " fill="#0C62AA" transform="translate(305.375,226.125)"/>
<path d="M0 0 C2.33294775 -0.04241723 4.66702567 -0.04092937 7 0 C8 1 8 1 8.0625 4.5625 C8.041875 5.696875 8.02125 6.83125 8 8 C10.97 8.495 10.97 8.495 14 9 C14.6875 11.75 14.6875 11.75 15 15 C13.5625 17.375 13.5625 17.375 12 19 C7.125 18.125 7.125 18.125 6 17 C3.32941149 16.85884839 0.67567762 16.95752893 -2 17 C-2 18.32 -2 19.64 -2 21 C-1.11248047 21.23783203 -1.11248047 21.23783203 -0.20703125 21.48046875 C5.01175057 23.02141412 8.7764064 24.36608421 12 29 C13.25690427 33.32060844 13.55917635 36.71389439 11.75 40.875 C11.1725 41.57625 10.595 42.2775 10 43 C9.566875 43.556875 9.13375 44.11375 8.6875 44.6875 C7 46 7 46 3.9375 46.875 C0.78204111 47.71223141 0.78204111 47.71223141 -0.375 50.625 C-0.58125 51.40875 -0.7875 52.1925 -1 53 C-3.64 53 -6.28 53 -9 53 C-9.93423645 49.98968256 -10.04449911 49.13349732 -9 46 C-9.7425 45.896875 -10.485 45.79375 -11.25 45.6875 C-14.17014018 44.95746496 -15.73187554 43.93210602 -18 42 C-17.25 36.25 -17.25 36.25 -15 34 C-12.375 33.875 -12.375 33.875 -10 34 C-10 34.66 -10 35.32 -10 36 C-6.37 36.66 -2.74 37.32 1 38 C1 36.35 1 34.7 1 33 C0.24074219 32.60167969 -0.51851563 32.20335937 -1.30078125 31.79296875 C-2.29464844 31.26316406 -3.28851563 30.73335938 -4.3125 30.1875 C-5.29863281 29.66542969 -6.28476562 29.14335937 -7.30078125 28.60546875 C-11.4751957 26.12256812 -11.4751957 26.12256812 -13 24 C-13.96618303 18.7987147 -13.91699723 14.36160195 -10.9375 9.9375 C-7.54977518 7.7030432 -4.94455194 6.85078571 -1 6 C-0.67 4.02 -0.34 2.04 0 0 Z " fill="#0E63AA" transform="translate(320,257)"/>
<path d="M0 0 C4.9127651 0.08470285 7.97501856 0.3450548 11.5 3.9375 C15.53876664 9.5044536 14.35644376 16.04655837 13.43676758 22.56225586 C13.18108 24.11452399 12.91668429 25.66537764 12.64453125 27.21484375 C12.50264877 28.06014648 12.3607663 28.90544922 12.21458435 29.77636719 C11.75535465 32.49819905 11.28424092 35.21781128 10.8125 37.9375 C10.49070109 39.82811967 10.16941592 41.71882685 9.84863281 43.60961914 C7.88306913 55.13989869 5.82552792 66.65146031 3.640625 78.14233398 C2.24249969 85.52295775 1.0131525 92.91711327 -0.01269531 100.35913086 C-0.52761344 103.89778062 -0.98151772 105.97227659 -3 109 C-3.99020864 105.79857356 -4.0200144 103.20014399 -3.6875 99.875 C-3.60886719 99.00617188 -3.53023438 98.13734375 -3.44921875 97.2421875 C-3 95 -3 95 -1 93 C-0.53927893 90.97286326 -0.53927893 90.97286326 -0.3671875 88.6484375 C-0.28339844 87.79765625 -0.19960938 86.946875 -0.11328125 86.0703125 C-0.03464844 85.18085938 0.04398437 84.29140625 0.125 83.375 C0.21136719 82.4778125 0.29773438 81.580625 0.38671875 80.65625 C0.5990924 78.4381252 0.80317085 76.21954931 1 74 C-1.31 73.67 -3.62 73.34 -6 73 C-6.495 74.485 -6.495 74.485 -7 76 C-6.24980575 68.73536384 -5.23425574 61.53052567 -4.125 54.3125 C-3.94936523 53.15999756 -3.77373047 52.00749512 -3.59277344 50.82006836 C-2.6635408 44.84371962 -1.6241944 38.95190458 -0.25 33.0625 C1.07920119 27.30741809 1.32437833 21.88686591 1 16 C-4.01839102 14.4351562 -8.8905801 13.50015634 -14.12109375 12.9296875 C-14.86585464 12.84373322 -15.61061554 12.75777893 -16.37794495 12.66921997 C-18.73054023 12.39897012 -21.08395689 12.13685307 -23.4375 11.875 C-25.04368135 11.69194555 -26.64980191 11.50835689 -28.25585938 11.32421875 C-32.16989759 10.87663635 -36.08469316 10.43633965 -40 10 C-33.82308139 5.88205426 -25.59171046 8.20505982 -18.625 9.4375 C-12.42067755 10.49334879 -6.33215744 11.35447503 -0.03125 11.59375 C2.47515794 12.09503159 3.39285254 13.06318126 5 15 C4.67 15.33 4.34 15.66 4 16 C3.95907063 18.33297433 3.95758277 20.66705225 4 23 C4.99 22.67 5.98 22.34 7 22 C7.495 22.99 7.495 22.99 8 24 C10.18742014 20.7188698 10.54442806 18.66915644 11.125 14.8125 C11.29257812 13.72582031 11.46015625 12.63914063 11.6328125 11.51953125 C11.81457031 10.27236328 11.81457031 10.27236328 12 9 C11.34 9 10.68 9 10 9 C7 4.61538462 7 4.61538462 7 2 C4.69 2 2.38 2 0 2 C0 1.34 0 0.68 0 0 Z " fill="#1C69AA" transform="translate(352,232)"/>
<path d="M0 0 C1.5631897 0.00785522 1.5631897 0.00785522 3.15795898 0.01586914 C4.17059814 0.0183667 5.1832373 0.02086426 6.2265625 0.0234375 C7.52263428 0.0325415 8.81870605 0.04164551 10.15405273 0.05102539 C16.31061523 0.08196289 16.31061523 0.08196289 22.59155273 0.11352539 C22.59155273 8.69352539 22.59155273 17.27352539 22.59155273 26.11352539 C18.48717773 26.13415039 14.38280273 26.15477539 10.15405273 26.17602539 C8.20994507 26.1896814 8.20994507 26.1896814 6.2265625 26.20361328 C4.70760376 26.20735962 4.70760376 26.20735962 3.15795898 26.21118164 C1.59476929 26.21903687 1.59476929 26.21903687 0 26.22705078 C-2.40844727 26.11352539 -2.40844727 26.11352539 -3.40844727 25.11352539 C-3.50791179 23.34493346 -3.53924944 21.57241088 -3.54125977 19.80102539 C-3.54254883 18.72594727 -3.54383789 17.65086914 -3.54516602 16.54321289 C-3.53936523 14.84551758 -3.53936523 14.84551758 -3.53344727 13.11352539 C-3.53731445 11.98172852 -3.54118164 10.84993164 -3.54516602 9.68383789 C-3.54387695 8.60875977 -3.54258789 7.53368164 -3.54125977 6.42602539 C-3.54013184 5.4321582 -3.53900391 4.43829102 -3.5378418 3.41430664 C-3.35943811 0.24208709 -3.18079199 0.14993089 0 0 Z " fill="#025EAC" transform="translate(255.408447265625,148.886474609375)"/>
<path d="M0 0 C6.1565625 -0.0309375 6.1565625 -0.0309375 12.4375 -0.0625 C14.38160767 -0.07615601 14.38160767 -0.07615601 16.36499023 -0.09008789 C17.88394897 -0.09383423 17.88394897 -0.09383423 19.43359375 -0.09765625 C20.47572021 -0.10289307 21.51784668 -0.10812988 22.59155273 -0.11352539 C25 0 25 0 26 1 C26.09946453 2.76859193 26.13080217 4.54111451 26.1328125 6.3125 C26.13474609 7.92511719 26.13474609 7.92511719 26.13671875 9.5703125 C26.13285156 10.70210937 26.12898438 11.83390625 26.125 13 C26.13080078 14.69769531 26.13080078 14.69769531 26.13671875 16.4296875 C26.13542969 17.50476563 26.13414062 18.57984375 26.1328125 19.6875 C26.13168457 20.68136719 26.13055664 21.67523438 26.12939453 22.69921875 C26 25 26 25 25 26 C23.14630389 26.08737645 21.28932459 26.10698153 19.43359375 26.09765625 C18.42095459 26.09515869 17.40831543 26.09266113 16.36499023 26.09008789 C15.06891846 26.08098389 13.77284668 26.07187988 12.4375 26.0625 C8.333125 26.041875 4.22875 26.02125 0 26 C0 17.42 0 8.84 0 0 Z " fill="#035CA7" transform="translate(222,149)"/>
<path d="M0 0 C1.5631897 0.00785522 1.5631897 0.00785522 3.15795898 0.01586914 C4.17059814 0.0183667 5.1832373 0.02086426 6.2265625 0.0234375 C7.52263428 0.0325415 8.81870605 0.04164551 10.15405273 0.05102539 C16.31061523 0.08196289 16.31061523 0.08196289 22.59155273 0.11352539 C22.59155273 8.36352539 22.59155273 16.61352539 22.59155273 25.11352539 C18.48717773 25.13415039 14.38280273 25.15477539 10.15405273 25.17602539 C8.20994507 25.1896814 8.20994507 25.1896814 6.2265625 25.20361328 C4.70760376 25.20735962 4.70760376 25.20735962 3.15795898 25.21118164 C1.59476929 25.21903687 1.59476929 25.21903687 0 25.22705078 C-2.40844727 25.11352539 -2.40844727 25.11352539 -3.40844727 24.11352539 C-3.5077688 22.41793813 -3.53924733 20.71826792 -3.54125977 19.01977539 C-3.54319336 17.47483398 -3.54319336 17.47483398 -3.54516602 15.89868164 C-3.54129883 14.81458008 -3.53743164 13.73047852 -3.53344727 12.61352539 C-3.53731445 11.52942383 -3.54118164 10.44532227 -3.54516602 9.32836914 C-3.54387695 8.2984082 -3.54258789 7.26844727 -3.54125977 6.20727539 C-3.54013184 5.25530273 -3.53900391 4.30333008 -3.5378418 3.32250977 C-3.35575921 0.2140508 -3.12076202 0.1471013 0 0 Z " fill="#0960AA" transform="translate(255.408447265625,179.886474609375)"/>
<path d="M0 0 C1.07507813 -0.00128906 2.15015625 -0.00257813 3.2578125 -0.00390625 C4.38960937 -0.00003906 5.52140625 0.00382813 6.6875 0.0078125 C7.81929687 0.00394531 8.95109375 0.00007812 10.1171875 -0.00390625 C11.19226563 -0.00261719 12.26734375 -0.00132812 13.375 0 C14.86580078 0.00169189 14.86580078 0.00169189 16.38671875 0.00341797 C18.6875 0.1328125 18.6875 0.1328125 19.6875 1.1328125 C19.77476223 2.91352496 19.79449041 4.6976439 19.78515625 6.48046875 C19.78265869 7.45250244 19.78016113 8.42453613 19.77758789 9.42602539 C19.76848389 10.66989014 19.75937988 11.91375488 19.75 13.1953125 C19.729375 17.1346875 19.70875 21.0740625 19.6875 25.1328125 C11.1075 25.1328125 2.5275 25.1328125 -6.3125 25.1328125 C-6.333125 21.1934375 -6.35375 17.2540625 -6.375 13.1953125 C-6.38865601 11.32951538 -6.38865601 11.32951538 -6.40258789 9.42602539 C-6.40633423 7.96797485 -6.40633423 7.96797485 -6.41015625 6.48046875 C-6.41539307 5.48023682 -6.42062988 4.48000488 -6.42602539 3.44946289 C-6.21168163 -0.9245326 -3.81526741 0.00432991 0 0 Z " fill="#035CA8" transform="translate(228.3125,179.8671875)"/>
<path d="M0 0 C0.763125 0.825 1.52625 1.65 2.3125 2.5 C4.75434142 5.34055197 4.75434142 5.34055197 8 5 C8.66 5 9.32 5 10 5 C10.2794355 11.32999019 9.21099999 17.19577128 8.03125 23.40234375 C7.8314856 24.48004532 7.63172119 25.55774689 7.42590332 26.66810608 C6.78979204 30.09235919 6.14502633 33.51491621 5.5 36.9375 C5.06583309 39.26616925 4.63223306 41.59494427 4.19921875 43.92382812 C3.13937471 49.61712674 2.07243036 55.30905958 1 61 C0.67 61 0.34 61 0 61 C-0.0270203 58.24993392 -0.04684883 55.50013454 -0.0625 52.75 C-0.07087891 51.97269531 -0.07925781 51.19539063 -0.08789062 50.39453125 C-0.09111328 49.64042969 -0.09433594 48.88632812 -0.09765625 48.109375 C-0.10289307 47.41811523 -0.10812988 46.72685547 -0.11352539 46.01464844 C0.00562029 43.90026102 0.42381763 42.03358485 1 40 C0.01 40.66 -0.98 41.32 -2 42 C-2.825 42.144375 -3.65 42.28875 -4.5 42.4375 C-7.31664671 43.07124551 -8.10288978 43.92221262 -10 46 C-10.66 46 -11.32 46 -12 46 C-11.505 43.03 -11.505 43.03 -11 40 C-10.34 40 -9.68 40 -9 40 C-9 39.34 -9 38.68 -9 38 C-8.01 37.34 -7.02 36.68 -6 36 C-5.3124246 33.27568728 -4.80679867 30.69739729 -4.39453125 27.9296875 C-4.26559982 27.13345978 -4.1366684 26.33723206 -4.00382996 25.51687622 C-3.59451267 22.9713549 -3.20332795 20.42341898 -2.8125 17.875 C-2.53829811 16.14955025 -2.26292199 14.42428667 -1.98632812 12.69921875 C-1.31057029 8.46818623 -0.6510614 4.2349001 0 0 Z " fill="#1665AA" transform="translate(283,258)"/>
<path d="M0 0 C0.33 0 0.66 0 1 0 C0.88611241 4.75221849 0.71160666 8.04441391 -2.1875 11.9375 C-5 14 -5 14 -8.1875 15 C-11.23450427 15.72475717 -11.23450427 15.72475717 -12.375 18.625 C-12.684375 19.800625 -12.684375 19.800625 -13 21 C-15.64 21 -18.28 21 -21 21 C-21.93423645 17.98968256 -22.04449911 17.13349732 -21 14 C-22.11375 13.8453125 -22.11375 13.8453125 -23.25 13.6875 C-26.17014018 12.95746496 -27.73187554 11.93210602 -30 10 C-29.25 4.25 -29.25 4.25 -27 2 C-24.375 1.875 -24.375 1.875 -22 2 C-22 2.66 -22 3.32 -22 4 C-18.37 4.66 -14.74 5.32 -11 6 C-10.67 7.98 -10.34 9.96 -10 12 C-8.68 12 -7.36 12 -6 12 C-6 11.34 -6 10.68 -6 10 C-5.34 10 -4.68 10 -4 10 C-4 8.35 -4 6.7 -4 5 C-2.68 5 -1.36 5 0 5 C0 3.35 0 1.7 0 0 Z " fill="#0A63AD" transform="translate(332,289)"/>
<path d="M0 0 C2.33294775 -0.04241723 4.66702567 -0.04092937 7 0 C8 1 8 1 8.0625 4.5625 C8.041875 5.696875 8.02125 6.83125 8 8 C10.97 8.495 10.97 8.495 14 9 C14.6875 11.75 14.6875 11.75 15 15 C13.5625 17.375 13.5625 17.375 12 19 C7.125 18.125 7.125 18.125 6 17 C3.32941149 16.85884839 0.67567762 16.95752893 -2 17 C-2 18.32 -2 19.64 -2 21 C-0.02 21.66 1.96 22.32 4 23 C4 23.33 4 23.66 4 24 C1.66705225 24.04241723 -0.66702567 24.04092937 -3 24 C-4 23 -4 23 -4.09765625 21.15234375 C-4.06510417 19.1015625 -4.03255208 17.05078125 -4 15 C-0.91190305 13.23537317 0.23312136 13 4 13 C3.67 12.01 3.34 11.02 3 10 C3.66 10 4.32 10 5 10 C5.33 7.69 5.66 5.38 6 3 C5.01 3 4.02 3 3 3 C2.87625 3.804375 2.7525 4.60875 2.625 5.4375 C2.41875 6.283125 2.2125 7.12875 2 8 C-1.06890187 9.53445094 -3.70094266 8.54984289 -7 8 C-3.25 6 -3.25 6 -1 6 C-0.67 4.02 -0.34 2.04 0 0 Z " fill="#0B5CA3" transform="translate(320,257)"/>
<path d="M0 0 C1.5631897 0.00785522 1.5631897 0.00785522 3.15795898 0.01586914 C4.28266602 0.0190918 5.40737305 0.02231445 6.56616211 0.02563477 C7.75016602 0.03401367 8.93416992 0.04239258 10.15405273 0.05102539 C11.34192383 0.05553711 12.52979492 0.06004883 13.75366211 0.06469727 C16.69964685 0.07652853 19.64560589 0.09446463 22.59155273 0.11352539 C22.59155273 8.03352539 22.59155273 15.95352539 22.59155273 24.11352539 C21.60155273 23.45352539 20.61155273 22.79352539 19.59155273 22.11352539 C19.34277344 20.05053711 19.34277344 20.05053711 19.51733398 17.54321289 C19.56543213 16.73609863 19.61353027 15.92898437 19.66308594 15.09741211 C19.74260498 14.07147949 19.82212402 13.04554688 19.90405273 11.98852539 C20.13092773 8.72977539 20.35780273 5.47102539 20.59155273 2.11352539 C13.33155273 2.11352539 6.07155273 2.11352539 -1.40844727 2.11352539 C-1.40844727 9.37352539 -1.40844727 16.63352539 -1.40844727 24.11352539 C5.74185096 24.03443233 5.74185096 24.03443233 12.8918457 23.93334961 C13.7801709 23.92835449 14.66849609 23.92335937 15.58374023 23.91821289 C16.95054932 23.90250244 16.95054932 23.90250244 18.3449707 23.88647461 C20.59155273 24.11352539 20.59155273 24.11352539 22.59155273 26.11352539 C18.44573387 26.1423929 14.29994057 26.16027867 10.15405273 26.17602539 C8.37804687 26.18859375 8.37804687 26.18859375 6.56616211 26.20141602 C5.44145508 26.20463867 4.31674805 26.20786133 3.15795898 26.21118164 C1.59476929 26.21903687 1.59476929 26.21903687 0 26.22705078 C-2.40844727 26.11352539 -2.40844727 26.11352539 -3.40844727 25.11352539 C-3.50791179 23.34493346 -3.53924944 21.57241088 -3.54125977 19.80102539 C-3.54254883 18.72594727 -3.54383789 17.65086914 -3.54516602 16.54321289 C-3.53936523 14.84551758 -3.53936523 14.84551758 -3.53344727 13.11352539 C-3.53731445 11.98172852 -3.54118164 10.84993164 -3.54516602 9.68383789 C-3.54387695 8.60875977 -3.54258789 7.53368164 -3.54125977 6.42602539 C-3.54013184 5.4321582 -3.53900391 4.43829102 -3.5378418 3.41430664 C-3.35943811 0.24208709 -3.18079199 0.14993089 0 0 Z " fill="#386A9E" transform="translate(255.408447265625,148.886474609375)"/>
<path d="M0 0 C0.33 0 0.66 0 1 0 C1.0468207 15.73410634 1.08203804 31.46819372 1.10362434 47.20235252 C1.11391579 54.50878612 1.12793513 61.81517631 1.15087891 69.12158203 C1.1708783 75.49341984 1.18373191 81.86522619 1.18817699 88.23709452 C1.19077333 91.6077016 1.19683088 94.97821873 1.21146011 98.34879684 C1.22603246 102.12109403 1.22797551 105.89320643 1.22705078 109.66552734 C1.23424133 110.77036469 1.24143188 111.87520203 1.24884033 113.01351929 C1.23149757 119.57556375 0.56178873 125.62268851 -1 132 C-1.33 132 -1.66 132 -2 132 C-2.33 129.69 -2.66 127.38 -3 125 C-4.485 125.495 -4.485 125.495 -6 126 C-6 125.34 -6 124.68 -6 124 C-5.01 124 -4.02 124 -3 124 C-0.77995564 110.27638068 -0.65504374 96.68681586 -0.5859375 82.8125 C-0.5671902 80.41397462 -0.54761425 78.01545558 -0.5272522 75.61694336 C-0.47630095 69.35689059 -0.43647901 63.09681653 -0.39910889 56.83666992 C-0.35883503 50.42751966 -0.30785032 44.01845515 -0.2578125 37.609375 C-0.16149237 25.07297722 -0.07694944 12.53653061 0 0 Z " fill="#3D6EA5" transform="translate(399,212)"/>
<path d="M0 0 C0 0.66 0 1.32 0 2 C-14.85587755 5.35047451 -29.17124866 6.07445298 -44.375 6.125 C-45.59541992 6.12975342 -46.81583984 6.13450684 -48.07324219 6.1394043 C-49.21180664 6.137229 -50.35037109 6.13505371 -51.5234375 6.1328125 C-52.55388184 6.13168457 -53.58432617 6.13055664 -54.64599609 6.12939453 C-57 6 -57 6 -58 5 C-60.85877909 4.76298761 -63.69883297 4.57780818 -66.5625 4.4375 C-67.36880859 4.39431641 -68.17511719 4.35113281 -69.00585938 4.30664062 C-71.00368805 4.20024738 -73.0018207 4.09959112 -75 4 C-75 3.67 -75 3.34 -75 3 C-73.93789307 3.00523682 -72.87578613 3.01047363 -71.78149414 3.01586914 C-67.75383381 3.03428495 -63.726177 3.0455623 -59.69848633 3.05493164 C-57.9715919 3.05988984 -56.24470149 3.06665843 -54.51782227 3.07543945 C-38.94592157 3.15250563 -23.59921314 2.70970764 -8.171875 0.40234375 C-5.39888261 0.05059718 -2.78935795 -0.07864731 0 0 Z " fill="#2E6FA6" transform="translate(286,436)"/>
<path d="M0 0 C6.75 0.75 6.75 0.75 9 3 C9 3.99 9 4.98 9 6 C9.66 6 10.32 6 11 6 C10.91256669 7.91750286 10.8043811 9.83406665 10.6875 11.75 C10.62949219 12.81734375 10.57148438 13.8846875 10.51171875 14.984375 C9.96909846 18.1821068 9.14928855 19.62598691 7 22 C6.67 21.01 6.34 20.02 6 19 C4.02 19.99 4.02 19.99 2 21 C2 17.66666667 2 14.33333333 2 11 C1.34 10.01 0.68 9.02 0 8 C1.32 6.68 2.64 5.36 4 4 C1.525 3.01 1.525 3.01 -1 2 C-0.67 1.34 -0.34 0.68 0 0 Z " fill="#035DAA" transform="translate(353,235)"/>
<path d="M0 0 C0.99 0.33 1.98 0.66 3 1 C2.67 34 2.34 67 2 101 C2.99 101 3.98 101 5 101 C4.938125 100.071875 4.87625 99.14375 4.8125 98.1875 C5 95 5 95 6.375 93.125 C8 92 8 92 10 92 C10.33 92.99 10.66 93.98 11 95 C10.07421875 96.82421875 10.07421875 96.82421875 8.6875 98.6875 C8.01267578 99.62142578 8.01267578 99.62142578 7.32421875 100.57421875 C6.88722656 101.04472656 6.45023437 101.51523437 6 102 C5.34 102 4.68 102 4 102 C3.34 103.32 2.68 104.64 2 106 C1.67 106 1.34 106 1 106 C0.67 71.02 0.34 36.04 0 0 Z " fill="#376DA1" transform="translate(99,210)"/>
<path d="M0 0 C3.97915159 -0.02886984 7.95827653 -0.04675406 11.9375 -0.0625 C13.07380859 -0.07087891 14.21011719 -0.07925781 15.38085938 -0.08789062 C16.46044922 -0.09111328 17.54003906 -0.09433594 18.65234375 -0.09765625 C20.15269165 -0.10551147 20.15269165 -0.10551147 21.68334961 -0.11352539 C24 0 24 0 25 1 C25.08726223 2.78071246 25.10699041 4.5648314 25.09765625 6.34765625 C25.09515869 7.31968994 25.09266113 8.29172363 25.09008789 9.29321289 C25.08098389 10.53707764 25.07187988 11.78094238 25.0625 13.0625 C25.041875 17.001875 25.02125 20.94125 25 25 C16.42 25 7.84 25 -1 25 C-0.67 24.34 -0.34 23.68 0 23 C7.59 23 15.18 23 23 23 C22.505 13.1 22.505 13.1 22 3 C15.07 2.67 8.14 2.34 1 2 C0.67 1.34 0.34 0.68 0 0 Z " fill="#5487B7" transform="translate(223,180)"/>
<path d="M0 0 C4.14581887 -0.02886751 8.29161216 -0.04675327 12.4375 -0.0625 C14.21350586 -0.07506836 14.21350586 -0.07506836 16.02539062 -0.08789062 C17.15009766 -0.09111328 18.27480469 -0.09433594 19.43359375 -0.09765625 C20.47572021 -0.10289307 21.51784668 -0.10812988 22.59155273 -0.11352539 C25 0 25 0 26 1 C26.09946453 2.76859193 26.13080217 4.54111451 26.1328125 6.3125 C26.13474609 7.92511719 26.13474609 7.92511719 26.13671875 9.5703125 C26.13285156 10.70210937 26.12898438 11.83390625 26.125 13 C26.13080078 14.69769531 26.13080078 14.69769531 26.13671875 16.4296875 C26.13542969 17.50476563 26.13414062 18.57984375 26.1328125 19.6875 C26.13168457 20.68136719 26.13055664 21.67523438 26.12939453 22.69921875 C26 25 26 25 25 26 C23.14630389 26.08737645 21.28932459 26.10698153 19.43359375 26.09765625 C18.30888672 26.09443359 17.18417969 26.09121094 16.02539062 26.08789062 C14.84138672 26.07951172 13.65738281 26.07113281 12.4375 26.0625 C11.24962891 26.05798828 10.06175781 26.05347656 8.83789062 26.04882812 C5.89187774 26.03699675 2.94596319 26.02051287 0 26 C0.33 25.34 0.66 24.68 1 24 C8.59 24 16.18 24 24 24 C24 16.41 24 8.82 24 1 C16.08 1 8.16 1 0 1 C0 0.67 0 0.34 0 0 Z " fill="#658EB7" transform="translate(222,149)"/>
<path d="M0 0 C8.25 0.33 16.5 0.66 25 1 C24.67 1.66 24.34 2.32 24 3 C23.34926514 3.02505615 22.69853027 3.0501123 22.02807617 3.07592773 C19.08101954 3.19193702 16.1342787 3.31464115 13.1875 3.4375 C11.65125977 3.49647461 11.65125977 3.49647461 10.08398438 3.55664062 C9.10107422 3.59853516 8.11816406 3.64042969 7.10546875 3.68359375 C5.74651489 3.73858032 5.74651489 3.73858032 4.36010742 3.79467773 C1.84951218 3.9208205 1.84951218 3.9208205 -1 5 C-1 22.16 -1 39.32 -1 57 C-1.33 57 -1.66 57 -2 57 C-2 38.85 -2 20.7 -2 2 C-1.34 2 -0.68 2 0 2 C0 1.34 0 0.68 0 0 Z " fill="#1F60A0" transform="translate(400,207)"/>
<path d="M0 0 C0.763125 0.825 1.52625 1.65 2.3125 2.5 C4.75434142 5.34055197 4.75434142 5.34055197 8 5 C8.66 5 9.32 5 10 5 C10.08159574 9.16138263 9.98248524 12.9472484 9 17 C8.01 17 7.02 17 6 17 C6 16.01 6 15.02 6 14 C3.61435923 14.57584432 1.33317216 15.22227595 -1 16 C-1.73323796 18.01508358 -1.73323796 18.01508358 -2 20 C-2.26404456 13.13484138 -1.25841946 6.74153283 0 0 Z " fill="#2D73AF" transform="translate(283,258)"/>
<path d="M0 0 C0.66 0.33 1.32 0.66 2 1 C0.93249206 2.51130338 -0.15460282 4.00878703 -1.25 5.5 C-1.85328125 6.3353125 -2.4565625 7.170625 -3.078125 8.03125 C-3.71234375 8.6809375 -4.3465625 9.330625 -5 10 C-6.32 10 -7.64 10 -9 10 C-9 10.66 -9 11.32 -9 12 C-9.99 12 -10.98 12 -12 12 C-12 13.98 -12 15.96 -12 18 C-12.99 18.33 -13.98 18.66 -15 19 C-15 18.34 -15 17.68 -15 17 C-16.98 17.99 -16.98 17.99 -19 19 C-19 19.66 -19 20.32 -19 21 C-19.66 21 -20.32 21 -21 21 C-21.33 21.66 -21.66 22.32 -22 23 C-23.97888961 23.72693904 -25.97954558 24.39816251 -28 25 C-26.9789114 21.32408105 -26.08564783 20.0660202 -23 17.6875 C-20 16 -20 16 -18 16 C-18 15.34 -18 14.68 -18 14 C-16.56298828 12.703125 -16.56298828 12.703125 -14.5703125 11.25 C-13.85746094 10.7240625 -13.14460938 10.198125 -12.41015625 9.65625 C-11.65605469 9.1096875 -10.90195313 8.563125 -10.125 8 C-8.64745926 6.91800125 -7.17085456 5.83472281 -5.6953125 4.75 C-5.03547363 4.27046875 -4.37563477 3.7909375 -3.69580078 3.296875 C-1.87714091 1.96522887 -1.87714091 1.96522887 0 0 Z " fill="#3073AC" transform="translate(98,172)"/>
<path d="M0 0 C0.33 0.66 0.66 1.32 1 2 C2.76826954 4.17282569 2.76826954 4.17282569 4.98046875 4.265625 C6.98888143 4.25140615 8.99584122 4.13142025 11 4 C11 5.65 11 7.3 11 9 C12.65 9.33 14.3 9.66 16 10 C16.33 10.99 16.66 11.98 17 13 C22.28 13.66 27.56 14.32 33 15 C33 15.66 33 16.32 33 17 C21.59586914 17.41469567 10.84723959 14.59202482 2 7 C2 6.34 2 5.68 2 5 C1.34 5 0.68 5 0 5 C0 4.34 0 3.68 0 3 C-0.66 3 -1.32 3 -2 3 C-2 2.34 -2 1.68 -2 1 C-1.34 0.67 -0.68 0.34 0 0 Z " fill="#2E72AB" transform="translate(158,270)"/>
<path d="M0 0 C0.66 0.33 1.32 0.66 2 1 C2 1.66 2 2.32 2 3 C-2.5 4.5 -2.5 4.5 -7 6 C-7 6.99 -7 7.98 -7 9 C-7.56847656 9.12117188 -8.13695312 9.24234375 -8.72265625 9.3671875 C-12.31501952 10.14683228 -15.8484309 10.95509064 -19.375 12 C-33.2440273 15.82593857 -33.2440273 15.82593857 -40 14 C-40 13.67 -40 13.34 -40 13 C-39.09121094 12.84144531 -38.18242187 12.68289063 -37.24609375 12.51953125 C-24.81660989 10.21210912 -12.97890996 7.04347726 -1.85546875 0.8203125 C-0.93701172 0.41425781 -0.93701172 0.41425781 0 0 Z " fill="#427BAC" transform="translate(315,395)"/>
<path d="M0 0 C2.31 0.66 4.62 1.32 7 2 C6.67 3.32 6.34 4.64 6 6 C4.68 5.01 3.36 4.02 2 3 C1.86555348 11.05185254 2.04999972 19.08003561 2.375 27.125 C2.40585693 28.04949951 2.43671387 28.97399902 2.46850586 29.92651367 C2.52663452 31.23519409 2.52663452 31.23519409 2.5859375 32.5703125 C2.6173584 33.35164551 2.6487793 34.13297852 2.68115234 34.93798828 C2.89893073 37.30451945 2.89893073 37.30451945 5 40 C3.35 39.67 1.7 39.34 0 39 C-0.02505615 38.16750732 -0.0501123 37.33501465 -0.07592773 36.47729492 C-0.17112694 33.38537167 -0.27035672 30.29361148 -0.37231445 27.2019043 C-0.43687006 25.20696681 -0.4967783 23.21188071 -0.55664062 21.21679688 C-0.59853516 19.96318359 -0.64042969 18.70957031 -0.68359375 17.41796875 C-0.72025146 16.26063232 -0.75690918 15.1032959 -0.79467773 13.91088867 C-0.88328509 10.9356554 -0.88328509 10.9356554 -2 8 C-1.54451823 5.26187393 -0.74685247 2.6798824 0 0 Z " fill="#4275A5" transform="translate(199,362)"/>
<path d="M0 0 C6.20432245 1.05584879 12.29284256 1.91697503 18.59375 2.15625 C21.10015794 2.65753159 22.01785254 3.62568126 23.625 5.5625 C22.965 7.8725 22.305 10.1825 21.625 12.5625 C21.295 12.5625 20.965 12.5625 20.625 12.5625 C19.965 10.2525 19.305 7.9425 18.625 5.5625 C-1.175 3.0875 -1.175 3.0875 -21.375 0.5625 C-15.19808139 -3.55544574 -6.96671046 -1.23244018 0 0 Z " fill="#3972AB" transform="translate(333.375,241.4375)"/>
<path d="M0 0 C2 2 2 2 2.22705078 4.15478516 C2.21657715 5.02409668 2.20610352 5.8934082 2.1953125 6.7890625 C2.18886719 7.73007813 2.18242187 8.67109375 2.17578125 9.640625 C2.15902344 10.62546875 2.14226562 11.6103125 2.125 12.625 C2.11597656 13.61757812 2.10695312 14.61015625 2.09765625 15.6328125 C2.07404116 18.08878134 2.04110799 20.54427168 2 23 C2.65597168 22.98952637 3.31194336 22.97905273 3.98779297 22.96826172 C6.95015658 22.92677497 9.91245916 22.90069738 12.875 22.875 C13.90753906 22.85824219 14.94007813 22.84148437 16.00390625 22.82421875 C16.99003906 22.81777344 17.97617187 22.81132812 18.9921875 22.8046875 C20.35899658 22.78897705 20.35899658 22.78897705 21.75341797 22.77294922 C24 23 24 23 26 25 C21.85418113 25.02886751 17.70838784 25.04675327 13.5625 25.0625 C11.78649414 25.07506836 11.78649414 25.07506836 9.97460938 25.08789062 C8.84990234 25.09111328 7.72519531 25.09433594 6.56640625 25.09765625 C5.00321655 25.10551147 5.00321655 25.10551147 3.40844727 25.11352539 C1 25 1 25 0 24 C-0.08726223 22.21928754 -0.10699041 20.4351686 -0.09765625 18.65234375 C-0.09443359 17.57275391 -0.09121094 16.49316406 -0.08789062 15.38085938 C-0.07951172 14.24455078 -0.07113281 13.10824219 -0.0625 11.9375 C-0.05798828 10.79732422 -0.05347656 9.65714844 -0.04882812 8.48242188 C-0.03699747 5.65489649 -0.0205141 2.8274736 0 0 Z " fill="#5281AC" transform="translate(252,150)"/>
<path d="M0 0 C0.66 0.33 1.32 0.66 2 1 C2 2.98 2 4.96 2 7 C1.01 7.33 0.02 7.66 -1 8 C-1.73323796 10.01508358 -1.73323796 10.01508358 -2 12 C-2.66 12 -3.32 12 -4 12 C-4 12.66 -4 13.32 -4 14 C-5.65 14.33 -7.3 14.66 -9 15 C-9 13.68 -9 12.36 -9 11 C-11.97 10.505 -11.97 10.505 -15 10 C-15 9.67 -15 9.34 -15 9 C-13.02 9 -11.04 9 -9 9 C-9 8.34 -9 7.68 -9 7 C-8.34 7 -7.68 7 -7 7 C-6.67 6.01 -6.34 5.02 -6 4 C-4.04402816 2.60287726 -2.04563599 1.26220093 0 0 Z " fill="#055AA6" transform="translate(330,287)"/>
<path d="M0 0 C1.5631897 0.00785522 1.5631897 0.00785522 3.15795898 0.01586914 C4.28266602 0.0190918 5.40737305 0.02231445 6.56616211 0.02563477 C7.75016602 0.03401367 8.93416992 0.04239258 10.15405273 0.05102539 C11.34192383 0.05553711 12.52979492 0.06004883 13.75366211 0.06469727 C16.69967499 0.07652864 19.64558954 0.09301252 22.59155273 0.11352539 C22.26155273 0.77352539 21.93155273 1.43352539 21.59155273 2.11352539 C14.33155273 2.11352539 7.07155273 2.11352539 -0.40844727 2.11352539 C-0.73844727 9.04352539 -1.06844727 15.97352539 -1.40844727 23.11352539 C4.53155273 23.11352539 10.47155273 23.11352539 16.59155273 23.11352539 C16.59155273 23.44352539 16.59155273 23.77352539 16.59155273 24.11352539 C9.99155273 24.11352539 3.39155273 24.11352539 -3.40844727 24.11352539 C-3.43527519 20.30097916 -3.45520204 16.48861927 -3.47094727 12.67602539 C-3.47932617 11.58741211 -3.48770508 10.49879883 -3.49633789 9.37719727 C-3.49956055 8.34272461 -3.5027832 7.30825195 -3.50610352 6.24243164 C-3.51134033 5.28409424 -3.51657715 4.32575684 -3.52197266 3.33837891 C-3.36268075 0.21660016 -3.13065192 0.14756748 0 0 Z " fill="#477DB0" transform="translate(255.408447265625,179.886474609375)"/>
<path d="M0 0 C4.9127651 0.08470285 7.97501856 0.3450548 11.5 3.9375 C15.58684406 9.40143282 14.438603 14.9041938 13.53125 21.30859375 C13.06548189 24.21621965 12.55643417 27.10852961 12 30 C11.34 30 10.68 30 10 30 C9.75908465 22.7725395 10.65504172 16.09705662 12 9 C11.34 9 10.68 9 10 9 C7 4.61538462 7 4.61538462 7 2 C4.69 2 2.38 2 0 2 C0 1.34 0 0.68 0 0 Z " fill="#306BA2" transform="translate(352,232)"/>
<path d="M0 0 C0.99 0.33 1.98 0.66 3 1 C4.1875 3.5625 4.1875 3.5625 5 6 C2.94709452 7.02645274 0.90024097 8.04560413 -1.1875 9 C-3.17201523 9.87144569 -3.17201523 9.87144569 -4 12 C-4.66 11.67 -5.32 11.34 -6 11 C-6 10.01 -6 9.02 -6 8 C-7.32 7.34 -8.64 6.68 -10 6 C-9.67 5.01 -9.34 4.02 -9 3 C-4.545 2.505 -4.545 2.505 0 2 C0 1.34 0 0.68 0 0 Z " fill="#2871AE" transform="translate(327,282)"/>
<path d="M0 0 C11.88 0 23.76 0 36 0 C35.34 0.99 34.68 1.98 34 3 C31.62084961 3.35644531 31.62084961 3.35644531 28.65234375 3.328125 C27.57146484 3.32296875 26.49058594 3.3178125 25.37695312 3.3125 C24.24193359 3.291875 23.10691406 3.27125 21.9375 3.25 C20.82955078 3.24484375 19.72160156 3.2396875 18.58007812 3.234375 C12.31540108 3.17509952 6.2112862 2.81502591 0 2 C0 1.34 0 0.68 0 0 Z " fill="#4686C0" transform="translate(230,410)"/>
<path d="M0 0 C1.32 0 2.64 0 4 0 C4.6875 2.75 4.6875 2.75 5 6 C3.5625 8.375 3.5625 8.375 2 10 C-2.875 9.125 -2.875 9.125 -4 8 C-6.67058851 7.85884839 -9.32432238 7.95752893 -12 8 C-12 9.32 -12 10.64 -12 12 C-10.02 12.66 -8.04 13.32 -6 14 C-6 14.33 -6 14.66 -6 15 C-8.33294775 15.04241723 -10.66702567 15.04092937 -13 15 C-14 14 -14 14 -14.09765625 12.15234375 C-14.06510417 10.1015625 -14.03255208 8.05078125 -14 6 C-12.083412 5.97287847 -10.1667127 5.95354903 -8.25 5.9375 C-6.64898437 5.92009766 -6.64898437 5.92009766 -5.015625 5.90234375 C-2.46631499 5.98489913 -0.42066409 6.25382442 2 7 C2.33 5.02 2.66 3.04 3 1 C2.01 0.67 1.02 0.34 0 0 Z " fill="#4D7DA7" transform="translate(330,266)"/>
<path d="M0 0 C2.4155417 3.62331255 2.32153469 6.43244515 2.4375 10.625 C2.71582326 16.91453911 3.44051447 22.16437299 6 28 C6.66 28.33 7.32 28.66 8 29 C7.34 29.99 6.68 30.98 6 32 C0.19070526 22.45996552 -2.39739049 13.28531527 -0.50390625 2.05859375 C-0.25447266 1.03958984 -0.25447266 1.03958984 0 0 Z " fill="#27689C" transform="translate(149,239)"/>
<path d="M0 0 C8.28043169 2.50922172 12.73680539 8.59862323 17.03125 15.73046875 C18 18 18 18 17 21 C16.34 20.67 15.68 20.34 15 20 C14.66666667 18.66666667 14.33333333 17.33333333 14 16 C13.34 15.67 12.68 15.34 12 15 C12 13.68 12 12.36 12 11 C11.38125 10.690625 10.7625 10.38125 10.125 10.0625 C8.75 9.375 7.375 8.6875 6 8 C6 7.34 6 6.68 6 6 C5.01 5.67 4.02 5.34 3 5 C3 4.01 3 3.02 3 2 C2.01 2 1.02 2 0 2 C0 1.34 0 0.68 0 0 Z " fill="#3C74A8" transform="translate(205,213)"/>
<path d="M0 0 C1.83863505 1.11631414 3.67079723 2.24329627 5.5 3.375 C6.5209375 4.00148437 7.541875 4.62796875 8.59375 5.2734375 C9.3878125 5.84320313 10.181875 6.41296875 11 7 C11 7.66 11 8.32 11 9 C11.78375 9.268125 12.5675 9.53625 13.375 9.8125 C16 11 16 11 18 14 C8.20848057 12.27208481 8.20848057 12.27208481 4.625 8.5 C3 6 3 6 3 4 C1.68 3.67 0.36 3.34 -1 3 C-0.67 2.01 -0.34 1.02 0 0 Z " fill="#3B77AD" transform="translate(407,177)"/>
<path d="M0 0 C0.66 0 1.32 0 2 0 C2.66 1.32 3.32 2.64 4 4 C3.34 4 2.68 4 2 4 C2 4.66 2 5.32 2 6 C1.34 6 0.68 6 0 6 C0 6.66 0 7.32 0 8 C-0.66 8 -1.32 8 -2 8 C-2 8.66 -2 9.32 -2 10 C-4.1875 11.7265625 -4.1875 11.7265625 -7 13.625 C-7.928125 14.25664062 -8.85625 14.88828125 -9.8125 15.5390625 C-10.534375 16.02117187 -11.25625 16.50328125 -12 17 C-12.66 16.67 -13.32 16.34 -14 16 C-12.75 13.0625 -12.75 13.0625 -11 10 C-8.875 9.25 -8.875 9.25 -7 9 C-6.67 8.34 -6.34 7.68 -6 7 C-4.35 7 -2.7 7 -1 7 C-1 6.34 -1 5.68 -1 5 C-0.34 5 0.32 5 1 5 C0.67 3.35 0.34 1.7 0 0 Z " fill="#3E7AB0" transform="translate(258,364)"/>
<path d="M0 0 C0.763125 0.0825 1.52625 0.165 2.3125 0.25 C2.3125 0.91 2.3125 1.57 2.3125 2.25 C5.9425 2.91 9.5725 3.57 13.3125 4.25 C13.3125 4.58 13.3125 4.91 13.3125 5.25 C10.0125 5.91 6.7125 6.57 3.3125 7.25 C2.6525 5.93 1.9925 4.61 1.3125 3.25 C0.3225 3.25 -0.6675 3.25 -1.6875 3.25 C-2.0175 4.9 -2.3475 6.55 -2.6875 8.25 C-1.6975 8.58 -0.7075 8.91 0.3125 9.25 C0.3125 9.91 0.3125 10.57 0.3125 11.25 C-2.125 10.5625 -2.125 10.5625 -4.6875 9.25 C-5.6875 6.875 -5.6875 6.875 -5.6875 4.25 C-4.16735516 1.12525782 -3.50932083 0.32644845 0 0 Z " fill="#5383B1" transform="translate(307.6875,290.75)"/>
<path d="M0 0 C0.05429959 1.74965358 0.09292823 3.49979787 0.125 5.25 C0.14820313 6.22453125 0.17140625 7.1990625 0.1953125 8.203125 C-0.00137219 11.0196498 -0.55431084 12.60949036 -2 15 C-2.99 14.67 -3.98 14.34 -5 14 C-6.60053875 6.01470341 -6.60053875 6.01470341 -4.1875 1.9375 C-2 0 -2 0 0 0 Z " fill="#1A67A6" transform="translate(295,248)"/>
<path d="M0 0 C0.99 0.33 1.98 0.66 3 1 C3 1.66 3 2.32 3 3 C4.07314453 3.36738281 4.07314453 3.36738281 5.16796875 3.7421875 C8.34583121 5.15359676 10.63646999 6.91281519 13.3125 9.125 C14.19550781 9.84945312 15.07851563 10.57390625 15.98828125 11.3203125 C16.98408203 12.15175781 16.98408203 12.15175781 18 13 C15.3333581 14.33332095 13.83319697 13.67102033 11 13 C11 12.01 11 11.02 11 10 C8.69 10.33 6.38 10.66 4 11 C4.33 9.02 4.66 7.04 5 5 C3.35 4.67 1.7 4.34 0 4 C0 2.68 0 1.36 0 0 Z " fill="#3574AB" transform="translate(389,163)"/>
<path d="M0 0 C0.99 0 1.98 0 3 0 C2.54177532 3.46941546 2.10868317 6.67395049 1 10 C-0.98 10.33 -2.96 10.66 -5 11 C-5.33 10.01 -5.66 9.02 -6 8 C-5.34 8 -4.68 8 -4 8 C-4 7.34 -4 6.68 -4 6 C-5.11375 6.515625 -6.2275 7.03125 -7.375 7.5625 C-8.57125 8.036875 -9.7675 8.51125 -11 9 C-11.66 8.67 -12.32 8.34 -13 8 C-12.01 7.67 -11.02 7.34 -10 7 C-10 6.34 -10 5.68 -10 5 C-7.36 5 -4.72 5 -2 5 C-1.34 3.35 -0.68 1.7 0 0 Z " fill="#035EAE" transform="translate(323,260)"/>
<path d="M0 0 C2.33294775 -0.04241723 4.66702567 -0.04092937 7 0 C8 1 8 1 8.0625 4.5625 C8.041875 5.696875 8.02125 6.83125 8 8 C6 5 6 5 6 3 C5.01 3 4.02 3 3 3 C2.87625 3.804375 2.7525 4.60875 2.625 5.4375 C2.41875 6.283125 2.2125 7.12875 2 8 C-1.06890187 9.53445094 -3.70094266 8.54984289 -7 8 C-3.25 6 -3.25 6 -1 6 C-0.67 4.02 -0.34 2.04 0 0 Z " fill="#467EB0" transform="translate(320,257)"/>
<path d="M0 0 C0.33 0 0.66 0 1 0 C0.88611241 4.75221849 0.71160666 8.04441391 -2.1875 11.9375 C-5.09877441 14.07243457 -7.58196361 14.9366109 -11 16 C-11.66 16.99 -12.32 17.98 -13 19 C-13.625 16.6875 -13.625 16.6875 -14 14 C-13.34 13.01 -12.68 12.02 -12 11 C-9.03 11.495 -9.03 11.495 -6 12 C-6 11.34 -6 10.68 -6 10 C-5.34 10 -4.68 10 -4 10 C-4 8.35 -4 6.7 -4 5 C-2.68 5 -1.36 5 0 5 C0 3.35 0 1.7 0 0 Z " fill="#4D81B2" transform="translate(332,289)"/>
<path d="M0 0 C0.495 0.33 0.99 0.66 1.5 1 C1.17 1.66 0.84 2.32 0.5 3 C-0.14066406 2.85820313 -0.78132813 2.71640625 -1.44140625 2.5703125 C-6.69484877 1.55943313 -6.69484877 1.55943313 -11.546875 3.26953125 C-12.70745747 4.36592221 -13.84661109 5.48553341 -14.9609375 6.62890625 C-16.5 8 -16.5 8 -19.4375 8.375 C-20.118125 8.25125 -20.79875 8.1275 -21.5 8 C-19.87660195 6.29115995 -18.20680947 4.62553283 -16.5 3 C-15.84 3 -15.18 3 -14.5 3 C-14.5 2.34 -14.5 1.68 -14.5 1 C-10.13338636 -1.91107576 -4.77017978 -1.90807191 0 0 Z " fill="#4D7BAC" transform="translate(256.5,60)"/>
<path d="M0 0 C0.99 0 1.98 0 3 0 C3.02578125 0.60328125 3.0515625 1.2065625 3.078125 1.828125 C3.38876005 7.02592748 3.38876005 7.02592748 5.9375 11.4375 C6.618125 11.953125 7.29875 12.46875 8 13 C8.66 13.66 9.32 14.32 10 15 C8.375 15.8125 8.375 15.8125 6 16 C1.71199222 13.69107273 1.71199222 13.69107273 0 11 C-0.51124246 7.28045027 -0.35273414 3.72983691 0 0 Z " fill="#326EA5" transform="translate(307,270)"/>
<path d="M0 0 C0.33 0.66 0.66 1.32 1 2 C1.61875 1.835 2.2375 1.67 2.875 1.5 C5 1 5 1 7 1 C6.6875 3.875 6.6875 3.875 6 7 C2.5647952 9.29013653 1.014669 9.17842973 -3 9 C-2.67 7.68 -2.34 6.36 -2 5 C-2.66 4.67 -3.32 4.34 -4 4 C-2.68 2.68 -1.36 1.36 0 0 Z " fill="#1A6BB0" transform="translate(312,265)"/>
<path d="M0 0 C0.66 0.33 1.32 0.66 2 1 C0.1875 4 0.1875 4 -2 7 C-2.99 7 -3.98 7 -5 7 C-5.33 7.99 -5.66 8.98 -6 10 C-8 10.66666667 -10 11.33333333 -12 12 C-13.35368596 13.31266518 -14.68799596 14.64567325 -16 16 C-18.75 17.25 -18.75 17.25 -21 18 C-10.20833333 6.88131313 -10.20833333 6.88131313 -4 5 C-4 4.34 -4 3.68 -4 3 C-2 1.375 -2 1.375 0 0 Z " fill="#5987B3" transform="translate(168,118)"/>
<path d="M0 0 C0 0.66 0 1.32 0 2 C-10.23770365 4.439623 -19.4829038 5.40278241 -30 5 C-30 4.67 -30 4.34 -30 4 C-26.7 3.67 -23.4 3.34 -20 3 C-20 2.67 -20 2.34 -20 2 C-17.60468244 1.66254646 -15.20885732 1.3299171 -12.8125 1 C-11.80219727 0.85691406 -11.80219727 0.85691406 -10.77148438 0.7109375 C-7.15335423 0.21675387 -3.65203599 -0.11346131 0 0 Z " fill="#417DAE" transform="translate(286,436)"/>
<path d="M0 0 C1 3 1 3 0.4375 5.375 C-1.79058331 9.44367388 -4.95590839 12.3007055 -9.375 13.8125 C-9.91125 13.874375 -10.4475 13.93625 -11 14 C-10.67 12.68 -10.34 11.36 -10 10 C-9.34 10 -8.68 10 -8 10 C-8 9.34 -8 8.68 -8 8 C-7.34 8 -6.68 8 -6 8 C-5.34 6.68 -4.68 5.36 -4 4 C-3.34 4 -2.68 4 -2 4 C-1.34 2.68 -0.68 1.36 0 0 Z " fill="#2768A5" transform="translate(252,320)"/>
<path d="M0 0 C0.66 0.66 1.32 1.32 2 2 C1.625 4.625 1.625 4.625 1 7 C1.639375 7.226875 2.27875 7.45375 2.9375 7.6875 C5 9 5 9 5.75 11.625 C5.8325 12.40875 5.915 13.1925 6 14 C6.99 14 7.98 14 9 14 C9.33 15.32 9.66 16.64 10 18 C8.68 18.33 7.36 18.66 6 19 C-0.86092898 7.39726689 -0.86092898 7.39726689 -1 1 C-0.67 0.67 -0.34 0.34 0 0 Z " fill="#2B6EA9" transform="translate(102,371)"/>
<path d="M0 0 C1.32723148 3.31807869 0.67397629 5.49159701 -0.39453125 8.8046875 C-1.4184601 12.51725533 -1.8838066 16.32617037 -2.4375 20.1328125 C-2.99139486 22.95613771 -3.84484008 25.37201119 -5 28 C-6.43119996 23.3221454 -5.51958303 19.30586457 -4.75 14.5625 C-4.62753906 13.71623047 -4.50507813 12.86996094 -4.37890625 11.99804688 C-3.64834746 7.37961331 -2.82208448 3.86054815 0 0 Z " fill="#4F81B2" transform="translate(290,230)"/>
<path d="M0 0 C0.33 0.99 0.66 1.98 1 3 C-0.25 4.5 -0.25 4.5 -2 6 C-3.32 6 -4.64 6 -6 6 C-6.66 8.31 -7.32 10.62 -8 13 C-8.99 12.67 -9.98 12.34 -11 12 C-11 12.66 -11 13.32 -11 14 C-12.32 13.67 -13.64 13.34 -15 13 C-11.55384615 8.2 -11.55384615 8.2 -8.75 7.1875 C-7.88375 7.0946875 -7.88375 7.0946875 -7 7 C-7 6.34 -7 5.68 -7 5 C-5.35 4.34 -3.7 3.68 -2 3 C-2 2.34 -2 1.68 -2 1 C-1.34 0.67 -0.68 0.34 0 0 Z " fill="#296BA5" transform="translate(188,103)"/>
<path d="M0 0 C0.33 0.99 0.66 1.98 1 3 C-0.25942386 4.19959375 -1.53295286 5.38439443 -2.8125 6.5625 C-3.87404297 7.55443359 -3.87404297 7.55443359 -4.95703125 8.56640625 C-5.63121094 9.03949219 -6.30539062 9.51257813 -7 10 C-7.99 9.67 -8.98 9.34 -10 9 C-10.33 9.99 -10.66 10.98 -11 12 C-11.66 11.67 -12.32 11.34 -13 11 C-13 10.67 -13 10.34 -13 10 C-13.66 9.67 -14.32 9.34 -15 9 C-10.05 6.03 -5.1 3.06 0 0 Z " fill="#3673AC" transform="translate(333,385)"/>
<path d="M0 0 C4.75 0.875 4.75 0.875 7 2 C7 2.66 7 3.32 7 4 C7.763125 4.103125 8.52625 4.20625 9.3125 4.3125 C12.19807812 5.05067115 13.26179817 5.62140803 15 8 C15 8.99 15 9.98 15 11 C16.32 11 17.64 11 19 11 C18.67 11.99 18.34 12.98 18 14 C13.77425588 11.22725198 9.6763128 8.33848055 5.625 5.3125 C5.07972656 4.90966797 4.53445313 4.50683594 3.97265625 4.09179688 C2.62904363 3.086613 1.31174745 2.04642636 0 1 C0 0.67 0 0.34 0 0 Z " fill="#407BAC" transform="translate(323,145)"/>
<path d="M0 0 C0.99 0 1.98 0 3 0 C2.36079057 2.00894394 1.68960962 4.00779443 1 6 C0.79375 6.763125 0.5875 7.52625 0.375 8.3125 C-1.39852471 10.4890985 -2.39052883 10.39856268 -5.125 10.75 C-6.40375 10.8325 -7.6825 10.915 -9 11 C-8.60167969 10.54109375 -8.20335937 10.0821875 -7.79296875 9.609375 C-6.99826172 8.68898438 -6.99826172 8.68898438 -6.1875 7.75 C-5.63835937 7.11449219 -5.08921875 6.47898437 -4.5234375 5.82421875 C-2.90875413 3.94643248 -2.90875413 3.94643248 -1.3125 1.5625 C-0.6628125 0.7890625 -0.6628125 0.7890625 0 0 Z " fill="#2A6CA3" transform="translate(354,365)"/>
<path d="M0 0 C1.98 0.495 1.98 0.495 4 1 C5.3271261 4.9813783 5.06915913 8.85045227 5 13 C3.68 13 2.36 13 1 13 C0.22227595 10.66682784 -0.42415568 8.38564077 -1 6 C-0.34 6 0.32 6 1 6 C0.67 4.02 0.34 2.04 0 0 Z " fill="#135FA1" transform="translate(348,82)"/>
<path d="M0 0 C0 0.33 0 0.66 0 1 C1.09699219 1.13277344 2.19398438 1.26554687 3.32421875 1.40234375 C4.77865801 1.58062985 6.23308442 1.7590208 7.6875 1.9375 C8.40873047 2.02451172 9.12996094 2.11152344 9.87304688 2.20117188 C13.62010584 2.66313805 17.30792911 3.19167679 21 4 C21 4.33 21 4.66 21 5 C13.80540143 5.21120322 6.97912425 4.60752499 -0.125 3.5 C-1.08148438 3.35691406 -2.03796875 3.21382813 -3.0234375 3.06640625 C-5.35002216 2.71741855 -7.67539156 2.36187667 -10 2 C-6.48375245 0.05841983 -4.0284349 -0.18311068 0 0 Z " fill="#5182B0" transform="translate(303,350)"/>
<path d="M0 0 C0.66 0.33 1.32 0.66 2 1 C0.93249206 2.51130338 -0.15460282 4.00878703 -1.25 5.5 C-1.85328125 6.3353125 -2.4565625 7.170625 -3.078125 8.03125 C-3.71234375 8.6809375 -4.3465625 9.330625 -5 10 C-6.32 10 -7.64 10 -9 10 C-9 10.66 -9 11.32 -9 12 C-10.98 12.33 -12.96 12.66 -15 13 C-10.43369266 8.12927217 -5.25023461 4.10843602 0 0 Z " fill="#417AB0" transform="translate(98,172)"/>
<path d="M0 0 C0.66 0.33 1.32 0.66 2 1 C2 1.66 2 2.32 2 3 C-1 4 -4 5 -7 6 C-7 6.99 -7 7.98 -7 9 C-11.455 9.495 -11.455 9.495 -16 10 C-15 7 -15 7 -11.875 5.4296875 C-10.58780531 4.90044836 -9.29586759 4.38263317 -8 3.875 C-3.68652422 2.42199023 -3.68652422 2.42199023 0 0 Z " fill="#427CAE" transform="translate(315,395)"/>
<path d="M0 0 C0 3.3 0 6.6 0 10 C-2.475 9.01 -2.475 9.01 -5 8 C-5.33 5.69 -5.66 3.38 -6 1 C-1.125 0 -1.125 0 0 0 Z " fill="#035DAC" transform="translate(316,273)"/>
<path d="M0 0 C0.66 0.99 1.32 1.98 2 3 C1.360625 3.2475 0.72125 3.495 0.0625 3.75 C-2.15640538 4.81408299 -2.15640538 4.81408299 -2.8125 7 C-3.18451089 9.07160124 -3.18451089 9.07160124 -2 11 C-4.64 11.33 -7.28 11.66 -10 12 C-9.67 11.01 -9.34 10.02 -9 9 C-8.34 9 -7.68 9 -7 9 C-6.6596875 8.1646875 -6.6596875 8.1646875 -6.3125 7.3125 C-4.64103234 4.36753316 -2.44723648 2.31843456 0 0 Z " fill="#3272A8" transform="translate(263,308)"/>
<path d="M0 0 C5.72554976 4.25906017 11.37992202 8.60280936 17 13 C16.34 13.66 15.68 14.32 15 15 C14.67 14.34 14.34 13.68 14 13 C12.88625 12.566875 12.88625 12.566875 11.75 12.125 C7.07193706 10.21124698 3.30370067 6.79313781 0 3 C0 2.01 0 1.02 0 0 Z " fill="#4880AE" transform="translate(288,85)"/>
<path d="M0 0 C0.33 0 0.66 0 1 0 C1.02712325 2.87506421 1.04689851 5.74986908 1.0625 8.625 C1.07087891 9.43324219 1.07925781 10.24148438 1.08789062 11.07421875 C1.1058955 15.50341918 0.89622662 19.63883424 0 24 C-0.33 24 -0.66 24 -1 24 C-1.33 21.69 -1.66 19.38 -2 17 C-2.99 17.33 -3.98 17.66 -5 18 C-5 17.34 -5 16.68 -5 16 C-4.01 16 -3.02 16 -2 16 C-1.34 10.72 -0.68 5.44 0 0 Z " fill="#2868A4" transform="translate(398,320)"/>
<path d="M0 0 C1.9375 0.125 1.9375 0.125 4 1 C5.52164099 3.89111788 6 5.71823412 6 9 C1.25 8.25 1.25 8.25 -1 6 C-1.1875 3.4375 -1.1875 3.4375 -1 1 C-0.67 0.67 -0.34 0.34 0 0 Z " fill="#065BA4" transform="translate(306,293)"/>
<path d="M0 0 C0.33 0 0.66 0 1 0 C1.45755719 7.62595318 -0.25463701 14.6029854 -2 22 C-2.66 21.67 -3.32 21.34 -4 21 C-3.88623383 18.87436897 -3.75864369 16.7494739 -3.625 14.625 C-3.55539062 13.44164062 -3.48578125 12.25828125 -3.4140625 11.0390625 C-3 8 -3 8 -1 6 C-0.60235737 4.01178687 -0.26224651 2.01055661 0 0 Z " fill="#4075A9" transform="translate(352,319)"/>
<path d="M0 0 C0.33 0.99 0.66 1.98 1 3 C0.07421875 4.82421875 0.07421875 4.82421875 -1.3125 6.6875 C-1.76238281 7.31011719 -2.21226563 7.93273437 -2.67578125 8.57421875 C-3.11277344 9.04472656 -3.54976563 9.51523437 -4 10 C-4.66 10 -5.32 10 -6 10 C-6.66 11.32 -7.32 12.64 -8 14 C-8.33 14 -8.66 14 -9 14 C-9 12.35 -9 10.7 -9 9 C-7.68 9 -6.36 9 -5 9 C-5.061875 8.071875 -5.12375 7.14375 -5.1875 6.1875 C-5 3 -5 3 -3.625 1.125 C-2 0 -2 0 0 0 Z " fill="#467CAF" transform="translate(109,302)"/>
<path d="M0 0 C1.12775345 0.00212242 1.12775345 0.00212242 2.27828979 0.00428772 C4.6829626 0.0098916 7.08754277 0.02244468 9.4921875 0.03515625 C11.12109241 0.04017075 12.74999877 0.04473375 14.37890625 0.04882812 C18.37503577 0.05986228 22.37109592 0.07712946 26.3671875 0.09765625 C22.85371049 2.26947779 20.07663435 2.31885722 15.9921875 2.2578125 C14.14367187 2.24137695 14.14367187 2.24137695 12.2578125 2.22460938 C10.97390625 2.20333984 9.69 2.18207031 8.3671875 2.16015625 C5.82557786 2.12570672 3.2839051 2.09557015 0.7421875 2.0703125 C-0.38445312 2.05234619 -1.51109375 2.03437988 -2.671875 2.01586914 C-5.20306115 2.08578564 -7.23022942 2.35014527 -9.6328125 3.09765625 C-9.6328125 2.43765625 -9.6328125 1.77765625 -9.6328125 1.09765625 C-6.56686656 -0.43531672 -3.36169397 -0.0236583 0 0 Z " fill="#074F96" transform="translate(321.6328125,80.90234375)"/>
<path d="M0 0 C0.33 0.99 0.66 1.98 1 3 C-8.41002278 6.25968109 -8.41002278 6.25968109 -13 7 C-5.875 -0.31756757 -5.875 -0.31756757 0 0 Z " fill="#3171AA" transform="translate(134,297)"/>
<path d="M0 0 C2.77141717 -0.08089542 5.54047819 -0.14044062 8.3125 -0.1875 C9.09818359 -0.21263672 9.88386719 -0.23777344 10.69335938 -0.26367188 C11.45068359 -0.27333984 12.20800781 -0.28300781 12.98828125 -0.29296875 C14.03302612 -0.31653442 14.03302612 -0.31653442 15.09887695 -0.34057617 C17.54489783 0.09761557 18.42702086 1.13437358 20 3 C19.34 5.31 18.68 7.62 18 10 C17.67 10 17.34 10 17 10 C16.34 7.69 15.68 5.38 15 3 C7.575 2.01 7.575 2.01 0 1 C0 0.67 0 0.34 0 0 Z " fill="#6090BE" transform="translate(337,244)"/>
<path d="M0 0 C0.66 0.33 1.32 0.66 2 1 C1.41892368 4.7602985 0.34800504 7.53035032 -1.5625 10.8125 C-2.01753906 11.60269531 -2.47257813 12.39289063 -2.94140625 13.20703125 C-3.29074219 13.79871094 -3.64007813 14.39039063 -4 15 C-4.33 15 -4.66 15 -5 15 C-5.125 12.125 -5.125 12.125 -5 9 C-4.34 8.34 -3.68 7.68 -3 7 C-1.96157435 4.68351201 -0.9578025 2.35096976 0 0 Z " fill="#497FAF" transform="translate(222,258)"/>
<path d="M0 0 C1.32 0 2.64 0 4 0 C4 0.66 4 1.32 4 2 C5.32 1.67 6.64 1.34 8 1 C8.33 1.66 8.66 2.32 9 3 C11.02463255 3.65213292 11.02463255 3.65213292 13 4 C13 4.66 13 5.32 13 6 C14.32 6.33 15.64 6.66 17 7 C17 7.66 17 8.32 17 9 C10.83643195 7.3341708 5.51740344 4.12194714 0 1 C0 0.67 0 0.34 0 0 Z " fill="#4A82B6" transform="translate(138,418)"/>
<path d="M0 0 C-1.20381448 2.49361571 -2.45428722 4.68143083 -4 7 C-4.66 7 -5.32 7 -6 7 C-6.66 8.32 -7.32 9.64 -8 11 C-8.99 11 -9.98 11 -11 11 C-10.360625 10.0925 -9.72125 9.185 -9.0625 8.25 C-6.93909039 5.28845118 -6.93909039 5.28845118 -6.4375 2.6875 C-6.293125 2.130625 -6.14875 1.57375 -6 1 C-3 0 -3 0 0 0 Z " fill="#3C75AA" transform="translate(378,381)"/>
<path d="M0 0 C6.87022688 0.11845219 6.87022688 0.11845219 9.90234375 2.484375 C11.54370433 4.29180265 12.91544208 5.80819466 14 8 C13.65234375 10.23046875 13.65234375 10.23046875 13 12 C12.67 11.01 12.34 10.02 12 9 C11.34 9 10.68 9 10 9 C7 4.61538462 7 4.61538462 7 2 C4.69 2 2.38 2 0 2 C0 1.34 0 0.68 0 0 Z " fill="#3F74A5" transform="translate(352,232)"/>
<path d="M0 0 C-2.36613456 1.18306728 -3.86780736 1.13354608 -6.5 1.125 C-7.2940625 1.12757813 -8.088125 1.13015625 -8.90625 1.1328125 C-11 1 -11 1 -13 0 C-14.99960012 -0.039992 -17.00047242 -0.04346799 -19 0 C-19 -0.33 -19 -0.66 -19 -1 C-12.81132958 -2.65031211 -5.65560762 -3.30454672 0 0 Z " fill="#3A78AD" transform="translate(306,328)"/>
<path d="M0 0 C0.33 0 0.66 0 1 0 C1.28307925 7.24997422 0.50974035 13.90961228 -1 21 C-1.33 21 -1.66 21 -2 21 C-2.05404449 18.24973583 -2.09369306 15.50053797 -2.125 12.75 C-2.14175781 11.97269531 -2.15851563 11.19539063 -2.17578125 10.39453125 C-2.23662606 3.27568856 -2.23662606 3.27568856 0 0 Z " fill="#3B73AB" transform="translate(285,298)"/>
<path d="M0 0 C0.66 0.99 1.32 1.98 2 3 C2.99 2.67 3.98 2.34 5 2 C5.79953138 5.28696233 6.09658936 6.71023192 5 10 C2.5625 9.3125 2.5625 9.3125 0 8 C-1.1807689 4.71071522 -1.1157177 3.34715311 0 0 Z " fill="#065BA7" transform="translate(285,255)"/>
<path d="M0 0 C0.66 0 1.32 0 2 0 C2 0.66 2 1.32 2 2 C4.475 2.99 4.475 2.99 7 4 C7 4.66 7 5.32 7 6 C7.804375 6.28875 8.60875 6.5775 9.4375 6.875 C12 8 12 8 13 10 C11.35 9.67 9.7 9.34 8 9 C8 8.34 8 7.68 8 7 C6.35 7.66 4.7 8.32 3 9 C3 8.34 3 7.68 3 7 C2.34 6.67 1.68 6.34 1 6 C1.66 6 2.32 6 3 6 C3 5.01 3 4.02 3 3 C2.34 3 1.68 3 1 3 C0.67 2.01 0.34 1.02 0 0 Z " fill="#3074AD" transform="translate(368,147)"/>
<path d="M0 0 C0.66 0.33 1.32 0.66 2 1 C1.34 2.32 0.68 3.64 0 5 C-0.99 5 -1.98 5 -3 5 C-3.33 6.32 -3.66 7.64 -4 9 C-5.875 9.625 -5.875 9.625 -8 10 C-8.66 9.34 -9.32 8.68 -10 8 C-6.7 5.36 -3.4 2.72 0 0 Z " fill="#3975B0" transform="translate(220,78)"/>
<path d="M0 0 C0.99 0 1.98 0 3 0 C1.55007731 4.10811428 -0.45407573 7.46855666 -3 11 C-3.33 11 -3.66 11 -4 11 C-4.6875 7.6875 -4.6875 7.6875 -5 4 C-3.5625 2.0625 -3.5625 2.0625 -2 1 C-2 1.66 -2 2.32 -2 3 C-1.34 3 -0.68 3 0 3 C0 2.01 0 1.02 0 0 Z " fill="#3573AD" transform="translate(384,368)"/>
<path d="M0 0 C1.95766281 -0.08082094 3.91626728 -0.13910778 5.875 -0.1875 C7.51082031 -0.23970703 7.51082031 -0.23970703 9.1796875 -0.29296875 C10.11039063 -0.19628906 11.04109375 -0.09960938 12 0 C12.66 0.99 13.32 1.98 14 3 C12.22925083 3.02705729 10.45838289 3.04642195 8.6875 3.0625 C7.70136719 3.07410156 6.71523437 3.08570313 5.69921875 3.09765625 C3 3 3 3 0 2 C0 1.34 0 0.68 0 0 Z " fill="#427BA9" transform="translate(181,208)"/>
<path d="M0 0 C1.65 0.33 3.3 0.66 5 1 C3.625 2.5 3.625 2.5 2 4 C1.34 4 0.68 4 0 4 C0 4.66 0 5.32 0 6 C-1.65 6.66 -3.3 7.32 -5 8 C-5.33 6.68 -5.66 5.36 -6 4 C-4.02 3.34 -2.04 2.68 0 2 C0 1.34 0 0.68 0 0 Z " fill="#3675AB" transform="translate(161,153)"/>
<path d="M0 0 C5.88219958 1.09668128 9.16413849 2.08530244 13 7 C13 7.99 13 8.98 13 10 C9.74035658 8.51222697 7.06830707 6.64333184 4.25 4.4375 C3.45078125 3.81746094 2.6515625 3.19742188 1.828125 2.55859375 C1.22484375 2.04425781 0.6215625 1.52992187 0 1 C0 0.67 0 0.34 0 0 Z " fill="#538AB4" transform="translate(284,115)"/>
<path d="M0 0 C-4.75 4 -4.75 4 -7 4 C-7 4.66 -7 5.32 -7 6 C-7.99 6.33 -8.98 6.66 -10 7 C-10.99 6.01 -11.98 5.02 -13 4 C-12.67 3.34 -12.34 2.68 -12 2 C-10.02 2.495 -10.02 2.495 -8 3 C-7.67 2.01 -7.34 1.02 -7 0 C-4.05610218 -1.17755913 -3.10046087 -1.03348696 0 0 Z " fill="#246AAB" transform="translate(243,95)"/>
<path d="M0 0 C2.31 0.66 4.62 1.32 7 2 C6.67 3.32 6.34 4.64 6 6 C4.68 5.01 3.36 4.02 2 3 C1.34 5.64 0.68 8.28 0 11 C-0.66 10.67 -1.32 10.34 -2 10 C-1.34 6.7 -0.68 3.4 0 0 Z " fill="#2B6DA5" transform="translate(199,362)"/>
<path d="M0 0 C2.60491661 0.1814661 5.05681623 0.46276386 7.625 0.875 C8.33140625 0.97941406 9.0378125 1.08382813 9.765625 1.19140625 C11.51192414 1.45099126 13.25618599 1.72421433 15 2 C15 2.66 15 3.32 15 4 C8.9981863 4.21824777 3.80766296 3.5056904 -2 2 C-1.34 1.34 -0.68 0.68 0 0 Z " fill="#4B7EB2" transform="translate(176,283)"/>
<path d="M0 0 C0.99 0.33 1.98 0.66 3 1 C3 1.66 3 2.32 3 3 C3.66 3 4.32 3 5 3 C6.11445498 5.22890995 6.16480286 6.53055106 6.1875 9 C6.20167969 9.70125 6.21585937 10.4025 6.23046875 11.125 C6 13 6 13 4 15 C3.12132271 11.26562152 2.91087781 7.83225427 3 4 C2.34 4 1.68 4 1 4 C0.67 2.68 0.34 1.36 0 0 Z " fill="#5A87B1" transform="translate(425,191)"/>
<path d="M0 0 C1.28583984 0.28617187 1.28583984 0.28617187 2.59765625 0.578125 C3.87962891 0.84882813 3.87962891 0.84882813 5.1875 1.125 C7.54126494 1.79431704 9.51917212 2.65579958 11.66015625 3.828125 C11.33015625 4.488125 11.00015625 5.148125 10.66015625 5.828125 C10.09167969 5.62316406 9.52320313 5.41820312 8.9375 5.20703125 C4.15171085 3.53719831 -0.29927576 2.36435564 -5.33984375 1.828125 C-2.33984375 -0.171875 -2.33984375 -0.171875 0 0 Z " fill="#477FAF" transform="translate(183.33984375,293.171875)"/>
<path d="M0 0 C2.31 0 4.62 0 7 0 C7 0.33 7 0.66 7 1 C5.35 1.33 3.7 1.66 2 2 C2 3.32 2 4.64 2 6 C3.98 6.66 5.96 7.32 8 8 C8 8.33 8 8.66 8 9 C5.66705225 9.04241723 3.33297433 9.04092937 1 9 C0 8 0 8 -0.09765625 6.15234375 C-0.06510417 4.1015625 -0.03255208 2.05078125 0 0 Z " fill="#5187B2" transform="translate(316,272)"/>
<path d="M0 0 C0.33 0 0.66 0 1 0 C1.33 1.65 1.66 3.3 2 5 C3.32 4.67 4.64 4.34 6 4 C6.33 5.32 6.66 6.64 7 8 C5.02 8.33 3.04 8.66 1 9 C-0.4783226 6.04335481 -0.06032783 3.25770263 0 0 Z M7 2 C7.99 2.495 7.99 2.495 9 3 C8.01 4.485 8.01 4.485 7 6 C7 4.68 7 3.36 7 2 Z " fill="#397BB6" transform="translate(69,197)"/>
<path d="M0 0 C0.33 0.66 0.66 1.32 1 2 C0.34 2.66 -0.32 3.32 -1 4 C-1.33 4.99 -1.66 5.98 -2 7 C-4.28515625 7.94921875 -4.28515625 7.94921875 -7.0625 8.6875 C-8.44115234 9.06455078 -8.44115234 9.06455078 -9.84765625 9.44921875 C-10.55792969 9.63097656 -11.26820313 9.81273438 -12 10 C-8.29909479 6.0747975 -4.45040344 3.05419844 0 0 Z " fill="#4F87B4" transform="translate(209,87)"/>
<path d="M0 0 C0.66 0 1.32 0 2 0 C2 1.32 2 2.64 2 4 C3.32 4 4.64 4 6 4 C6.66 2.68 7.32 1.36 8 0 C8 1.98 8 3.96 8 6 C5.36 6 2.72 6 0 6 C-1.125 2.25 -1.125 2.25 0 0 Z " fill="#37679F" transform="translate(311,304)"/>
<path d="M0 0 C0.99 0.33 1.98 0.66 3 1 C2.319375 1.9590625 2.319375 1.9590625 1.625 2.9375 C-0.44541527 6.83943648 -1.20081414 10.68439633 -2 15 C-2.33 15 -2.66 15 -3 15 C-3.08142927 13.2507786 -3.13938541 11.50045458 -3.1875 9.75 C-3.22230469 8.77546875 -3.25710937 7.8009375 -3.29296875 6.796875 C-2.96075202 3.62531258 -2.11327721 2.32959693 0 0 Z " fill="#3D72A8" transform="translate(128,183)"/>
<path d="M0 0 C-0.5 2.875 -0.5 2.875 -2 6 C-4.68310961 7.18275852 -7.0681289 7.52711756 -10 8 C-10 7.34 -10 6.68 -10 6 C-8.3203125 4.4921875 -8.3203125 4.4921875 -6.125 2.875 C-5.40570313 2.33617187 -4.68640625 1.79734375 -3.9453125 1.2421875 C-2 0 -2 0 0 0 Z " fill="#4D84B0" transform="translate(118,158)"/>
<path d="M0 0 C0.33 0.66 0.66 1.32 1 2 C2.65 1.67 4.3 1.34 6 1 C5.2884375 2.0828125 5.2884375 2.0828125 4.5625 3.1875 C3.05847097 5.89475226 2.43400818 7.96194275 2 11 C1.01 11 0.02 11 -1 11 C-1.125 3.375 -1.125 3.375 0 0 Z " fill="#3077B6" transform="translate(311,82)"/>
<path d="M0 0 C-1.95585325 1.00484204 -3.91476237 2.00373805 -5.875 3 C-6.96554687 3.556875 -8.05609375 4.11375 -9.1796875 4.6875 C-12 6 -12 6 -14 6 C-14 5.34 -14 4.68 -14 4 C-13.34 4 -12.68 4 -12 4 C-12 3.34 -12 2.68 -12 2 C-10.02 2 -8.04 2 -6 2 C-6 1.34 -6 0.68 -6 0 C-3.50907189 -1.24546405 -2.58919267 -0.7767578 0 0 Z " fill="#4F83B0" transform="translate(332,421)"/>
<path d="M0 0 C0.33 0 0.66 0 1 0 C1.38063221 2.3260857 1.71269945 4.66055264 2 7 C1.67 7.33 1.34 7.66 1 8 C1.66 8.66 2.32 9.32 3 10 C1.35 10.33 -0.3 10.66 -2 11 C-2 9.68 -2 8.36 -2 7 C-4.97 6.505 -4.97 6.505 -8 6 C-8 5.67 -8 5.34 -8 5 C-6.02 5 -4.04 5 -2 5 C-2 4.34 -2 3.68 -2 3 C-1.34 3 -0.68 3 0 3 C0 2.01 0 1.02 0 0 Z " fill="#0C599C" transform="translate(323,291)"/>
<path d="M0 0 C0.91007812 0.10183594 1.82015625 0.20367187 2.7578125 0.30859375 C3.45648438 0.39238281 4.15515625 0.47617188 4.875 0.5625 C4.875 0.8925 4.875 1.2225 4.875 1.5625 C2.235 1.8925 -0.405 2.2225 -3.125 2.5625 C-3.785 4.2125 -4.445 5.8625 -5.125 7.5625 C-5.785 7.5625 -6.445 7.5625 -7.125 7.5625 C-7.125 5.2525 -7.125 2.9425 -7.125 0.5625 C-4.50184968 -0.74907516 -2.89466564 -0.33399988 0 0 Z " fill="#5989B9" transform="translate(302.125,239.4375)"/>
<path d="M0 0 C-1.39332574 3.36720387 -2.9789286 4.9859524 -6 7 C-6.66 6.67 -7.32 6.34 -8 6 C-8 4.68 -8 3.36 -8 2 C-4.77208445 -0.1519437 -3.71599191 -0.20086443 0 0 Z " fill="#3478AF" transform="translate(155,161)"/>
<path d="M0 0 C1.32 0 2.64 0 4 0 C4 0.66 4 1.32 4 2 C5.65 2 7.3 2 9 2 C9.66 3.65 10.32 5.3 11 7 C9.68 7 8.36 7 7 7 C7 6.34 7 5.68 7 5 C6.21625 4.731875 5.4325 4.46375 4.625 4.1875 C2 3 2 3 0 0 Z " fill="#437AAD" transform="translate(267,102)"/>
<path d="M0 0 C2.31 0 4.62 0 7 0 C6.67 1.65 6.34 3.3 6 5 C4.35 5.33 2.7 5.66 1 6 C0.67 4.02 0.34 2.04 0 0 Z " fill="#075B9E" transform="translate(274,409)"/>
<path d="M0 0 C4.29 0 8.58 0 13 0 C12.67 0.99 12.34 1.98 12 3 C8.10885099 4.01911045 6.39403493 4.16782969 2.625 2.5625 C1.75875 2.046875 0.8925 1.53125 0 1 C0 0.67 0 0.34 0 0 Z " fill="#3874AA" transform="translate(303,343)"/>
<path d="M0 0 C0.33 0 0.66 0 1 0 C2 3 3 6 4 9 C3.34 9 2.68 9 2 9 C2 9.66 2 10.32 2 11 C1.01 11 0.02 11 -1 11 C-1.14285714 3.57142857 -1.14285714 3.57142857 0 0 Z " fill="#3E80B7" transform="translate(280,278)"/>
<path d="M0 0 C0.33 0.66 0.66 1.32 1 2 C1.66 2 2.32 2 3 2 C3.19335938 2.63808594 3.38671875 3.27617187 3.5859375 3.93359375 C3.84632813 4.75988281 4.10671875 5.58617187 4.375 6.4375 C4.63023437 7.26121094 4.88546875 8.08492188 5.1484375 8.93359375 C5.80882227 11.17798016 5.80882227 11.17798016 8 12 C7.01 13.485 7.01 13.485 6 15 C4.99267601 13.06629769 3.99436712 11.12789694 3 9.1875 C2.443125 8.10855469 1.88625 7.02960938 1.3125 5.91796875 C0 3 0 3 0 0 Z " fill="#4E83AE" transform="translate(149,256)"/>
<path d="M0 0 C-0.75 6.75 -0.75 6.75 -3 9 C-3.33 8.01 -3.66 7.02 -4 6 C-4.66 6 -5.32 6 -6 6 C-6 4 -6 4 -4.125 1.875 C-2 0 -2 0 0 0 Z " fill="#0160AD" transform="translate(363,248)"/>
<path d="M0 0 C-0.66 0 -1.32 0 -2 0 C-2 0.66 -2 1.32 -2 2 C-2.66 2 -3.32 2 -4 2 C-4.33 2.66 -4.66 3.32 -5 4 C-6.97888961 4.72693904 -8.97954558 5.39816251 -11 6 C-10.375 3.625 -10.375 3.625 -9 1 C-5.37169613 -0.69835501 -3.84489875 -1.28163292 0 0 Z " fill="#2A6CA8" transform="translate(81,191)"/>
<path d="M0 0 C2.125 0.375 2.125 0.375 4 1 C2.74057614 2.19959375 1.46704714 3.38439443 0.1875 4.5625 C-0.87404297 5.55443359 -0.87404297 5.55443359 -1.95703125 6.56640625 C-2.63121094 7.03949219 -3.30539063 7.51257813 -4 8 C-4.99 7.67 -5.98 7.34 -7 7 C-7 6.34 -7 5.68 -7 5 C-5.68 5 -4.36 5 -3 5 C-2.67 4.01 -2.34 3.02 -2 2 C-1.34 1.34 -0.68 0.68 0 0 Z " fill="#4075A9" transform="translate(206,119)"/>
<path d="M0 0 C-1.45449401 1.0055761 -2.91372443 2.00430435 -4.375 3 C-5.59316406 3.8353125 -5.59316406 3.8353125 -6.8359375 4.6875 C-9 6 -9 6 -11 6 C-11 5.34 -11 4.68 -11 4 C-10.01 4 -9.02 4 -8 4 C-8 2.68 -8 1.36 -8 0 C-4.90645403 -0.99435406 -3.09720845 -0.87840996 0 0 Z " fill="#4D82B1" transform="translate(345,413)"/>
<path d="M0 0 C1.65 0 3.3 0 5 0 C-0.79308675 5.94553641 -0.79308675 5.94553641 -4.1640625 6.09765625 C-5.38222656 6.08025391 -5.38222656 6.08025391 -6.625 6.0625 C-7.85089844 6.04896484 -7.85089844 6.04896484 -9.1015625 6.03515625 C-10.04128906 6.01775391 -10.04128906 6.01775391 -11 6 C-11 5.67 -11 5.34 -11 5 C-8.36 5 -5.72 5 -3 5 C-3 4.34 -3 3.68 -3 3 C-2.01 2.67 -1.02 2.34 0 2 C0 1.34 0 0.68 0 0 Z " fill="#75A0C6" transform="translate(342,351)"/>
<path d="M0 0 C2.86207152 1.28299758 5.0245088 2.530636 7 5 C7 5.99 7 6.98 7 8 C5.68 8 4.36 8 3 8 C3 7.01 3 6.02 3 5 C2.01 4.34 1.02 3.68 0 3 C0 2.01 0 1.02 0 0 Z " fill="#21669E" transform="translate(263,67)"/>
<path d="M0 0 C2.97 0.495 2.97 0.495 6 1 C2.20458337 3.21399303 -1.75629421 4.00980198 -6 5 C-6 4.01 -6 3.02 -6 2 C-4.02 2 -2.04 2 0 2 C0 1.34 0 0.68 0 0 Z " fill="#3473A7" transform="translate(305,429)"/>
<path d="M0 0 C0 0.33 0 0.66 0 1 C-11.52164009 3.48063781 -11.52164009 3.48063781 -17 2 C-17 1.67 -17 1.34 -17 1 C-10.97767819 -0.46619907 -6.09632423 -1.32528788 0 0 Z " fill="#598BBB" transform="translate(292,407)"/>
<path d="M0 0 C6.44070471 -0.10655578 12.62641289 0.03794912 19 1 C19 1.33 19 1.66 19 2 C16.95999027 2.22397733 14.91783811 2.42848537 12.875 2.625 C11.73804688 2.74101562 10.60109375 2.85703125 9.4296875 2.9765625 C5.83488201 3.00112837 3.319329 2.32167811 0 1 C0 0.67 0 0.34 0 0 Z " fill="#145493" transform="translate(320,330)"/>
<path d="M0 0 C4.43458973 1.3937282 6.87378374 3.60582235 10 7 C8.68 7.33 7.36 7.66 6 8 C6 7.34 6 6.68 6 6 C5.01 5.67 4.02 5.34 3 5 C3 4.01 3 3.02 3 2 C2.01 2 1.02 2 0 2 C0 1.34 0 0.68 0 0 Z " fill="#4A83B2" transform="translate(205,213)"/>
<path d="M0 0 C0.70769531 0.47566406 1.41539062 0.95132813 2.14453125 1.44140625 C2.85996094 1.91449219 3.57539063 2.38757813 4.3125 2.875 C4.85519531 3.24753906 5.39789063 3.62007812 5.95703125 4.00390625 C4.96703125 4.66390625 3.97703125 5.32390625 2.95703125 6.00390625 C2.17328125 5.48828125 1.38953125 4.97265625 0.58203125 4.44140625 C-0.28421875 3.96703125 -1.15046875 3.49265625 -2.04296875 3.00390625 C-3.03296875 3.49890625 -3.03296875 3.49890625 -4.04296875 4.00390625 C-4.37296875 2.68390625 -4.70296875 1.36390625 -5.04296875 0.00390625 C-2.04296875 -0.99609375 -2.04296875 -0.99609375 0 0 Z " fill="#3A7AAF" transform="translate(356.04296875,136.99609375)"/>
<path d="M0 0 C1.32 0.66 2.64 1.32 4 2 C1.69 3.65 -0.62 5.3 -3 7 C-3.66 6.34 -4.32 5.68 -5 5 C-4.34 5 -3.68 5 -3 5 C-3.33 3.68 -3.66 2.36 -4 1 C-2.02 1.495 -2.02 1.495 0 2 C0 1.34 0 0.68 0 0 Z " fill="#417AB4" transform="translate(216,111)"/>
<path d="M0 0 C0.33 0 0.66 0 1 0 C1.12375 1.11375 1.2475 2.2275 1.375 3.375 C1.6465813 7.03103677 1.6465813 7.03103677 4 9 C4.1953125 11.3828125 4.1953125 11.3828125 4.125 14.125 C4.10695313 15.03507812 4.08890625 15.94515625 4.0703125 16.8828125 C4.03550781 17.93082031 4.03550781 17.93082031 4 19 C3.67 19 3.34 19 3 19 C3 16.36 3 13.72 3 11 C2.01 10.67 1.02 10.34 0 10 C0 6.7 0 3.4 0 0 Z " fill="#195D94" transform="translate(311,86)"/>
<path d="M0 0 C2.31 0.33 4.62 0.66 7 1 C7 1.66 7 2.32 7 3 C7.66 3 8.32 3 9 3 C8.67 4.32 8.34 5.64 8 7 C6.66382648 6.02471263 5.3311249 5.04466681 4 4.0625 C3.2575 3.51722656 2.515 2.97195312 1.75 2.41015625 C1.1725 1.94480469 0.595 1.47945313 0 1 C0 0.67 0 0.34 0 0 Z " fill="#4078A8" transform="translate(254,92)"/>
<path d="M0 0 C1.1875 1.625 1.1875 1.625 2 4 C0.9375 7.1875 0.9375 7.1875 -1 10 C-3.6875 10.875 -3.6875 10.875 -6 11 C-6 10.34 -6 9.68 -6 9 C-5.34 9 -4.68 9 -4 9 C-4 8.34 -4 7.68 -4 7 C-3.01 6.34 -2.02 5.68 -1 5 C-0.27034634 2.43717258 -0.27034634 2.43717258 0 0 Z " fill="#497DAD" transform="translate(278,289)"/>
<path d="M0 0 C0.6875 1.6875 0.6875 1.6875 1 4 C-0.4375 6.75 -0.4375 6.75 -2 9 C-2.99 8.67 -3.98 8.34 -5 8 C-3.8141763 4.62496331 -2.72426311 2.35277269 0 0 Z " fill="#3B7DB1" transform="translate(158,221)"/>
<path d="M0 0 C6.70518586 -0.19818283 12.65176798 -0.30844801 19 2 C19 2.33 19 2.66 19 3 C12.4294834 3.24794402 6.43028541 2.32388229 0 1 C0 0.67 0 0.34 0 0 Z " fill="#6694BC" transform="translate(183,436)"/>
<path d="M0 0 C0 0.99 0 1.98 0 3 C-0.99 3 -1.98 3 -3 3 C-2.7525 3.5775 -2.505 4.155 -2.25 4.75 C-2.1675 5.4925 -2.085 6.235 -2 7 C-3.9375 9.25 -3.9375 9.25 -6 11 C-6 9.35 -6 7.7 -6 6 C-5.34 6 -4.68 6 -4 6 C-4 4.35 -4 2.7 -4 1 C-2 0 -2 0 0 0 Z " fill="#2B70AA" transform="translate(278,344)"/>
<path d="M0 0 C0.33 0 0.66 0 1 0 C0.91291331 1.45945288 0.80473093 2.91765868 0.6875 4.375 C0.62949219 5.18710937 0.57148438 5.99921875 0.51171875 6.8359375 C0 9 0 9 -3 11 C-4 10 -4 10 -4.0625 7.4375 C-4.041875 6.633125 -4.02125 5.82875 -4 5 C-2.68 5 -1.36 5 0 5 C0 3.35 0 1.7 0 0 Z " fill="#5B95BF" transform="translate(332,289)"/>
<path d="M0 0 C0.99 0.33 1.98 0.66 3 1 C3.66 0.67 4.32 0.34 5 0 C4.2890625 1.921875 4.2890625 1.921875 3 4 C0.8359375 4.828125 0.8359375 4.828125 -1.625 5.25 C-2.85089844 5.47429687 -2.85089844 5.47429687 -4.1015625 5.703125 C-4.72804687 5.80109375 -5.35453125 5.8990625 -6 6 C-4 4 -2 2 0 0 Z " fill="#0A569A" transform="translate(226,75)"/>
<path d="M0 0 C0.99 1.32 1.98 2.64 3 4 C2.67 4.66 2.34 5.32 2 6 C1.34 6 0.68 6 0 6 C-0.33 6.99 -0.66 7.98 -1 9 C-1.66 9 -2.32 9 -3 9 C-2.30058404 5.85262818 -1.23921302 2.97411124 0 0 Z " fill="#407AB1" transform="translate(370,340)"/>
<path d="M0 0 C2.23551759 3.35327639 2.17283528 3.90743657 1.625 7.6875 C1.51414062 8.49574219 1.40328125 9.30398438 1.2890625 10.13671875 C1.19367188 10.75160156 1.09828125 11.36648438 1 12 C0.01 12 -0.98 12 -2 12 C-1.33333333 8 -0.66666667 4 0 0 Z " fill="#5181B6" transform="translate(373,328)"/>
<path d="M0 0 C0.33 0.99 0.66 1.98 1 3 C-0.25 4.5 -0.25 4.5 -2 6 C-3.32 6 -4.64 6 -6 6 C-6 6.66 -6 7.32 -6 8 C-6.99 7.67 -7.98 7.34 -9 7 C-8.34 7 -7.68 7 -7 7 C-7 6.34 -7 5.68 -7 5 C-5.35 4.34 -3.7 3.68 -2 3 C-2 2.34 -2 1.68 -2 1 C-1.34 0.67 -0.68 0.34 0 0 Z " fill="#497EAE" transform="translate(188,103)"/>
<path d="M0 0 C0.66 0.33 1.32 0.66 2 1 C0.875 3.4375 0.875 3.4375 -1 6 C-4.1875 6.8125 -4.1875 6.8125 -7 7 C-4.66666667 4.66666667 -2.33333333 2.33333333 0 0 Z " fill="#5184AF" transform="translate(341,378)"/>
<path d="M0 0 C0 0.99 0 1.98 0 3 C2.97 3.33 5.94 3.66 9 4 C9 4.33 9 4.66 9 5 C3.1977825 5.36263859 -0.63999211 4.25684543 -6 2 C-2.25 0 -2.25 0 0 0 Z " fill="#72A1CA" transform="translate(231,378)"/>
<path d="M0 0 C0.66 0 1.32 0 2 0 C2.25 7.625 2.25 7.625 0 11 C-0.66 11 -1.32 11 -2 11 C-1.34 7.37 -0.68 3.74 0 0 Z " fill="#265E98" transform="translate(347,340)"/>
<path d="M0 0 C0.66 0.33 1.32 0.66 2 1 C1.34 2.65 0.68 4.3 0 6 C-1.98 6 -3.96 6 -6 6 C-4 4 -2 2 0 0 Z " fill="#3D78B0" transform="translate(106,166)"/>
<path d="M0 0 C2.475 0.99 2.475 0.99 5 2 C5 2.99 5 3.98 5 5 C6.32 5 7.64 5 9 5 C8.67 5.99 8.34 6.98 8 8 C1.42857143 4 1.42857143 4 0 0 Z " fill="#336DA2" transform="translate(333,151)"/>
<path d="M0 0 C0.66 0.66 1.32 1.32 2 2 C1.625 4.625 1.625 4.625 1 7 C1.99 7.33 2.98 7.66 4 8 C3.34 9.32 2.68 10.64 2 12 C1.4654744 10.75579353 0.94791389 9.50429064 0.4375 8.25 C0.14746094 7.55390625 -0.14257812 6.8578125 -0.44140625 6.140625 C-1.07831803 3.69987216 -0.80248831 2.3596345 0 0 Z " fill="#538CB8" transform="translate(102,371)"/>
<path d="M0 0 C0.99 0.66 1.98 1.32 3 2 C3 2.66 3 3.32 3 4 C3.99 4.33 4.98 4.66 6 5 C3.39417629 5.93065133 2.35801776 6.14917407 -0.25 5.0625 C-0.8275 4.711875 -1.405 4.36125 -2 4 C-1.34 2.68 -0.68 1.36 0 0 Z " fill="#3D79B3" transform="translate(231,328)"/>
<path d="M0 0 C0.66 0.99 1.32 1.98 2 3 C0.02 3.99 0.02 3.99 -2 5 C-2 5.66 -2 6.32 -2 7 C-3.32 6.67 -4.64 6.34 -6 6 C-4.02 4.02 -2.04 2.04 0 0 Z " fill="#5287B7" transform="translate(263,308)"/>
<path d="M0 0 C1.65 0 3.3 0 5 0 C5 0.66 5 1.32 5 2 C4.34 2 3.68 2 3 2 C3 2.66 3 3.32 3 4 C1.35 4.66 -0.3 5.32 -2 6 C-1.34 4.02 -0.68 2.04 0 0 Z " fill="#3B72A7" transform="translate(180,138)"/>
<path d="M0 0 C2 3 2 3 3 5 C0.36 5.33 -2.28 5.66 -5 6 C-3.35 4.02 -1.7 2.04 0 0 Z " fill="#3D78B0" transform="translate(350,370)"/>
<path d="M0 0 C0.99 0.33 1.98 0.66 3 1 C3 1.66 3 2.32 3 3 C3.99 3.33 4.98 3.66 6 4 C4.1875 5.0625 4.1875 5.0625 2 6 C1.01 5.67 0.02 5.34 -1 5 C-0.67 3.35 -0.34 1.7 0 0 Z " fill="#427EB4" transform="translate(362,142)"/>
<path d="M0 0 C0.33 0 0.66 0 1 0 C1 2.97 1 5.94 1 9 C-0.32 9 -1.64 9 -3 9 C-3 8.01 -3 7.02 -3 6 C-3.66 6 -4.32 6 -5 6 C-4.67 5.34 -4.34 4.68 -4 4 C-2.515 4.99 -2.515 4.99 -1 6 C-0.67 4.02 -0.34 2.04 0 0 Z " fill="#5584AC" transform="translate(313,97)"/>
<path d="M0 0 C0.99 0.33 1.98 0.66 3 1 C3 1.66 3 2.32 3 3 C4.32 3.66 5.64 4.32 7 5 C6.67 5.66 6.34 6.32 6 7 C3.5625 6.3125 3.5625 6.3125 1 5 C0.1875 2.375 0.1875 2.375 0 0 Z " fill="#447FB7" transform="translate(132,411)"/>
<path d="M0 0 C1.4540625 0.0309375 1.4540625 0.0309375 2.9375 0.0625 C1.2875 1.7125 -0.3625 3.3625 -2.0625 5.0625 C-2.7225 3.7425 -3.3825 2.4225 -4.0625 1.0625 C-3.0625 0.0625 -3.0625 0.0625 0 0 Z " fill="#2064A1" transform="translate(263.0625,361.9375)"/>
<path d="M0 0 C3.63 0.33 7.26 0.66 11 1 C11 1.33 11 1.66 11 2 C7.7 2.66 4.4 3.32 1 4 C0.67 2.68 0.34 1.36 0 0 Z " fill="#447DB6" transform="translate(310,294)"/>
<path d="M0 0 C6.75 1.75 6.75 1.75 9 4 C7.3125 4.8125 7.3125 4.8125 5 5 C2.25 2.5625 2.25 2.5625 0 0 Z " fill="#3F77AC" transform="translate(308,281)"/>
<path d="M0 0 C2.15377564 2.62198774 3.40072174 4.64404172 4 8 C3.01 8.495 3.01 8.495 2 9 C0.68 6.36 -0.64 3.72 -2 1 C-1.34 0.67 -0.68 0.34 0 0 Z " fill="#3F77AC" transform="translate(370,180)"/>
<path d="M0 0 C0.33 0.66 0.66 1.32 1 2 C0.01 2.495 0.01 2.495 -1 3 C-2.13350534 5.01669827 -2.13350534 5.01669827 -3 7 C-4.65 7 -6.3 7 -8 7 C-5.42215154 4.35247996 -3.08351902 2.05567935 0 0 Z " fill="#5589B6" transform="translate(135,144)"/>
<path d="M0 0 C0.66 0.33 1.32 0.66 2 1 C1.34 2.65 0.68 4.3 0 6 C-0.99 5.67 -1.98 5.34 -3 5 C-5.16715557 5.87483915 -5.16715557 5.87483915 -7 7 C-4.66666667 4.66666667 -2.33333333 2.33333333 0 0 Z " fill="#6CA0C3" transform="translate(229,71)"/>
<path d="M0 0 C1.32 0 2.64 0 4 0 C4 0.66 4 1.32 4 2 C5.32 1.67 6.64 1.34 8 1 C8.33 2.32 8.66 3.64 9 5 C5.22454612 3.90931332 2.52956528 3.0916909 0 0 Z " fill="#5E91BF" transform="translate(138,418)"/>
<path d="M0 0 C0.66 0.33 1.32 0.66 2 1 C2.5 3.5 2.5 3.5 3 6 C3.66 6.33 4.32 6.66 5 7 C4.01 7 3.02 7 2 7 C1.34 5.68 0.68 4.36 0 3 C-0.66 3 -1.32 3 -2 3 C-1 1 -1 1 0 0 Z " fill="#5C8FB7" transform="translate(115,395)"/>
<path d="M0 0 C2.26609984 4.53219967 1.92735976 6.17772925 1 11 C0.34 11 -0.32 11 -1 11 C-0.67 7.37 -0.34 3.74 0 0 Z " fill="#598AB4" transform="translate(100,336)"/>
<path d="M0 0 C1 3 1 3 0 6 C-1.9375 6.625 -1.9375 6.625 -4 7 C-4.99 7.495 -4.99 7.495 -6 8 C-5.34 6.68 -4.68 5.36 -4 4 C-3.34 4 -2.68 4 -2 4 C-1.34 2.68 -0.68 1.36 0 0 Z " fill="#5B8EB9" transform="translate(252,320)"/>
<path d="M0 0 C1.98 0 3.96 0 6 0 C5.01 0.495 5.01 0.495 4 1 C4 1.66 4 2.32 4 3 C3.34 3 2.68 3 2 3 C1.67 3.99 1.34 4.98 1 6 C0.67 6 0.34 6 0 6 C0 4.02 0 2.04 0 0 Z " fill="#4B80AD" transform="translate(110,298)"/>
<path d="M0 0 C0.66 0.99 1.32 1.98 2 3 C1.1875 4.9375 1.1875 4.9375 0 7 C-0.99 7.33 -1.98 7.66 -3 8 C-3.99 7.01 -4.98 6.02 -6 5 C-4.02 5 -2.04 5 0 5 C0 3.35 0 1.7 0 0 Z " fill="#467EAD" transform="translate(123,286)"/>
<path d="M0 0 C1.65 0 3.3 0 5 0 C5 0.99 5 1.98 5 3 C3.35 3.33 1.7 3.66 0 4 C0 2.68 0 1.36 0 0 Z " fill="#1E67A4" transform="translate(322,281)"/>
<path d="M0 0 C-0.33 0.66 -0.66 1.32 -1 2 C-3.06640625 2.6328125 -3.06640625 2.6328125 -5.5625 3.125 C-6.38878906 3.29257812 -7.21507812 3.46015625 -8.06640625 3.6328125 C-8.70449219 3.75398438 -9.34257812 3.87515625 -10 4 C-9.34 3.67 -8.68 3.34 -8 3 C-8 2.34 -8 1.68 -8 1 C-3.375 -1.125 -3.375 -1.125 0 0 Z " fill="#598DB8" transform="translate(205,282)"/>
<path d="M0 0 C0.66 0.33 1.32 0.66 2 1 C1.67 2.65 1.34 4.3 1 6 C0.01 6.33 -0.98 6.66 -2 7 C-1.125 1.125 -1.125 1.125 0 0 Z " fill="#336DA6" transform="translate(222,258)"/>
<path d="M0 0 C0 2.31 0 4.62 0 7 C-0.99 7 -1.98 7 -3 7 C-3 5.02 -3 3.04 -3 1 C-1 0 -1 0 0 0 Z " fill="#25639F" transform="translate(366,243)"/>
<path d="M0 0 C-0.99 1.485 -0.99 1.485 -2 3 C-3.65 2.67 -5.3 2.34 -7 2 C-7 1.34 -7 0.68 -7 0 C-3.86650268 -1.04449911 -3.01031744 -0.93423645 0 0 Z " fill="#09599B" transform="translate(181,211)"/>
<path d="M0 0 C2.6875 -0.3125 2.6875 -0.3125 5 0 C2.6875 2.5 2.6875 2.5 0 5 C-0.99 5 -1.98 5 -3 5 C-1.8125 2.5 -1.8125 2.5 0 0 Z " fill="#477CAE" transform="translate(136,173)"/>
<path d="M0 0 C1.98 0 3.96 0 6 0 C4.37660195 1.70884005 2.70680947 3.37446717 1 5 C0.34 5 -0.32 5 -1 5 C-0.67 3.35 -0.34 1.7 0 0 Z " fill="#407AAA" transform="translate(171,145)"/>
<path d="M0 0 C2.31 0 4.62 0 7 0 C5.35 1.65 3.7 3.3 2 5 C1.34 4.34 0.68 3.68 0 3 C0 2.01 0 1.02 0 0 Z " fill="#4279AD" transform="translate(193,127)"/>
<path d="M0 0 C0.625 1.875 0.625 1.875 1 4 C0.34 4.66 -0.32 5.32 -1 6 C-1.99 6 -2.98 6 -4 6 C-2.25 1.125 -2.25 1.125 0 0 Z " fill="#2C6EAA" transform="translate(234,68)"/>
<path d="M0 0 C0.99 0.33 1.98 0.66 3 1 C2.25 2.9375 2.25 2.9375 1 5 C-1.125 5.75 -1.125 5.75 -3 6 C-2.01 4.02 -1.02 2.04 0 0 Z " fill="#18609E" transform="translate(344,376)"/>
<path d="M0 0 C0.66 0.33 1.32 0.66 2 1 C0.99806563 4.79303725 0.18975773 7.71536341 -2 11 C-2.33 9.68 -2.66 8.36 -3 7 C-2.01 6.67 -1.02 6.34 0 6 C0 4.02 0 2.04 0 0 Z " fill="#4780B1" transform="translate(393,349)"/>
<path d="M0 0 C4.875 4.75 4.875 4.75 6 7 C5.01 7 4.02 7 3 7 C3 6.34 3 5.68 3 5 C1.68 4.34 0.36 3.68 -1 3 C-0.67 2.01 -0.34 1.02 0 0 Z " fill="#417CB0" transform="translate(225,321)"/>
<path d="M0 0 C1.65 0 3.3 0 5 0 C2.63707344 2.52588702 1.33537489 3.88820837 -2 5 C-2 4.34 -2 3.68 -2 3 C-2.66 2.67 -3.32 2.34 -4 2 C-2.68 2 -1.36 2 0 2 C0 1.34 0 0.68 0 0 Z " fill="#4981B0" transform="translate(208,277)"/>
<path d="M0 0 C2.31 0 4.62 0 7 0 C3.79663178 2.83374881 1.21912747 3.5205537 -3 4 C-2.67 3.34 -2.34 2.68 -2 2 C-1.34 2 -0.68 2 0 2 C0 1.34 0 0.68 0 0 Z " fill="#0E5593" transform="translate(313,265)"/>
<path d="M0 0 C2.31 1.65 4.62 3.3 7 5 C4.3333581 6.33332095 2.83319697 5.67102033 0 5 C0 3.35 0 1.7 0 0 Z " fill="#5D89B7" transform="translate(400,171)"/>
<path d="M0 0 C4.95 0.99 4.95 0.99 10 2 C10 2.33 10 2.66 10 3 C3.375 4.125 3.375 4.125 0 3 C0 2.01 0 1.02 0 0 Z " fill="#6695BA" transform="translate(282,323)"/>
<path d="M0 0 C1.33332095 2.6666419 0.67102033 4.16680303 0 7 C-1.32 7 -2.64 7 -4 7 C-2.92598892 4.08482708 -2.22189824 2.22189824 0 0 Z " fill="#6398BE" transform="translate(115,308)"/>
<path d="M0 0 C2.0625 0.4375 2.0625 0.4375 4 1 C1.94766315 3.2477975 0.99332739 4.0022242 -2 5 C-1.125 1.125 -1.125 1.125 0 0 Z " fill="#2768A5" transform="translate(266,305)"/>
<path d="M0 0 C2 1 2 1 2 1 Z M-2 1 C-1.34 1.33 -0.68 1.66 0 2 C-1.28965176 3.37562854 -2.62689293 4.70766393 -4 6 C-4.66 6 -5.32 6 -6 6 C-5.6875 4.0625 -5.6875 4.0625 -5 2 C-4.01 1.67 -3.02 1.34 -2 1 Z " fill="#0A5AA1" transform="translate(277,298)"/>
<path d="M0 0 C0.33 0 0.66 0 1 0 C1.29296875 6.0546875 1.29296875 6.0546875 1 8 C0.01 8.66 -0.98 9.32 -2 10 C-2 8.35 -2 6.7 -2 5 C-1.34 5 -0.68 5 0 5 C0 3.35 0 1.7 0 0 Z " fill="#0B599A" transform="translate(152,232)"/>
<path d="M0 0 C2.64 0 5.28 0 8 0 C8 0.33 8 0.66 8 1 C5.69 1 3.38 1 1 1 C1.33 1.99 1.66 2.98 2 4 C1.01 4.495 1.01 4.495 0 5 C-0.66 4.67 -1.32 4.34 -2 4 C-2 3.34 -2 2.68 -2 2 C-1.34 2 -0.68 2 0 2 C0 1.34 0 0.68 0 0 Z " fill="#2770AE" transform="translate(400,207)"/>
<path d="M0 0 C0.66 0.33 1.32 0.66 2 1 C1.375 2.9375 1.375 2.9375 0 5 C-3.125 5.75 -3.125 5.75 -6 6 C-4 4 -2 2 0 0 Z " fill="#5D8FB9" transform="translate(89,179)"/>
<path d="M0 0 C2.475 0.495 2.475 0.495 5 1 C5.33 2.65 5.66 4.3 6 6 C3.97945196 4.35830472 1.97956942 2.69088222 0 1 C0 0.67 0 0.34 0 0 Z " fill="#6D9ABF" transform="translate(362,175)"/>
<path d="M0 0 C0.66 0 1.32 0 2 0 C2.33 0.99 2.66 1.98 3 3 C1.625 4.5 1.625 4.5 0 6 C-0.66 6 -1.32 6 -2 6 C-2.33 5.01 -2.66 4.02 -3 3 C-2.01 3 -1.02 3 0 3 C0 2.01 0 1.02 0 0 Z " fill="#417FB0" transform="translate(144,166)"/>
<path d="M0 0 C0.33 0.66 0.66 1.32 1 2 C2.2375 2.495 2.2375 2.495 3.5 3 C6 4 6 4 7 6 C5.35 5.67 3.7 5.34 2 5 C2 4.34 2 3.68 2 3 C1.01 3 0.02 3 -1 3 C-0.67 2.01 -0.34 1.02 0 0 Z " fill="#5484B0" transform="translate(374,151)"/>
<path d="M0 0 C-0.33 0.99 -0.66 1.98 -1 3 C-1.66 3 -2.32 3 -3 3 C-3 3.66 -3 4.32 -3 5 C-3.99 5.33 -4.98 5.66 -6 6 C-6 4.68 -6 3.36 -6 2 C-2.25 0 -2.25 0 0 0 Z " fill="#5781AE" transform="translate(229,104)"/>
<path d="M0 0 C-1.98 1.32 -3.96 2.64 -6 4 C-6.33 2.68 -6.66 1.36 -7 0 C-3.98968256 -0.93423645 -3.13349732 -1.04449911 0 0 Z " fill="#4579AB" transform="translate(243,95)"/>
<path d="M0 0 C0.66 0.33 1.32 0.66 2 1 C1.375 2.9375 1.375 2.9375 0 5 C-3.125 5.75 -3.125 5.75 -6 6 C-4 4 -2 2 0 0 Z " fill="#5D8CBD" transform="translate(220,78)"/>
</svg>
